<svg width="75" height="75" viewBox="0 0 75 75" fill="none" xmlns="http://www.w3.org/2000/svg">
<path d="M65.625 53.9062V62.3109L53.9062 50.5922V35.1562C53.906 34.7211 53.7847 34.2946 53.5557 33.9245C53.3268 33.5545 52.9994 33.2554 52.6102 33.0609L39.8438 26.6742V13.6594L45.9047 19.7203L49.2188 16.4062L37.5 4.6875L25.7812 16.4062L29.0953 19.7203L35.1562 13.6594V26.6766L22.3898 33.0586C22.0002 33.2533 21.6726 33.5527 21.4436 33.9232C21.2147 34.2937 21.0935 34.7207 21.0938 35.1562V50.5922L9.375 62.3109V53.9062H4.6875V70.3125H21.0938V65.625H12.6891L23.8992 54.4148L36.4523 60.6914C36.7777 60.8538 37.1364 60.9383 37.5 60.9383C37.8636 60.9383 38.2223 60.8538 38.5477 60.6914L51.1008 54.4148L62.3109 65.625H53.9062V70.3125H70.3125V53.9062H65.625ZM35.1562 54.8016L25.7812 50.1141V38.9484L35.1562 43.6359V54.8016ZM37.5 39.5672L28.6781 35.1562L37.5 30.7453L46.3219 35.1562L37.5 39.5672ZM49.2188 50.1141L39.8438 54.8016V43.6359L49.2188 38.9484V50.1141Z" fill="white"/>
</svg>
