<svg width="29" height="25" viewBox="0 0 29 25" fill="none" xmlns="http://www.w3.org/2000/svg">
<path fill-rule="evenodd" clip-rule="evenodd" d="M21.3706 20.9358L25.3589 17.484C25.8157 17.0887 25.8157 16.4487 25.3589 16.0543L23.5061 14.4508C23.0493 14.0555 22.3098 14.0555 21.8542 14.4508L17.8659 17.9026C17.6462 18.0927 17.5236 18.3495 17.5236 18.6174V21.232H20.5446C20.8542 21.232 21.1509 21.1259 21.3706 20.9358V20.9358Z" stroke="white" stroke-width="1.62614" stroke-linecap="round" stroke-linejoin="round"/>
<path d="M8.17761 14.1549H12.8506" stroke="white" stroke-width="1.62614" stroke-linecap="round" stroke-linejoin="round"/>
<path d="M8.17761 9.10026H17.5235" stroke="white" stroke-width="1.62614" stroke-linecap="round" stroke-linejoin="round"/>
<path d="M22.1965 10.1104V7.07715C22.1965 5.40181 20.6275 4.04395 18.6918 4.04395H7.00941C5.07364 4.04395 3.5047 5.40181 3.5047 7.07715V16.1768C3.5047 17.8521 5.07364 19.21 7.00941 19.21H12.8506" stroke="white" stroke-width="1.62614" stroke-linecap="round" stroke-linejoin="round"/>
</svg>
