<svg width="45" height="45" viewBox="0 0 45 45" fill="none" xmlns="http://www.w3.org/2000/svg">
<circle cx="22.5" cy="22.5" r="21.9795" stroke="white" stroke-width="1.04096"/>
<path d="M16.3125 21.459C15.7376 21.459 15.2715 21.9251 15.2715 22.5C15.2715 23.0749 15.7376 23.541 16.3125 23.541V21.459ZM29.4236 23.2361C29.8301 22.8296 29.8301 22.1704 29.4236 21.7639L22.7989 15.1393C22.3924 14.7327 21.7333 14.7327 21.3268 15.1393C20.9202 15.5458 20.9202 16.2049 21.3268 16.6114L27.2154 22.5L21.3268 28.3886C20.9202 28.7951 20.9202 29.4542 21.3268 29.8607C21.7333 30.2673 22.3924 30.2673 22.7989 29.8607L29.4236 23.2361ZM16.3125 23.541H28.6875V21.459H16.3125V23.541Z" fill="white"/>
</svg>
