<svg width="19" height="17" viewBox="0 0 19 17" fill="none" xmlns="http://www.w3.org/2000/svg">
<path d="M1.1756 7.44927C0.600689 7.44927 0.134633 7.91533 0.134633 8.49023C0.134633 9.06514 0.600689 9.5312 1.1756 9.5312V7.44927ZM17.8685 9.22631C18.2751 8.81979 18.2751 8.16068 17.8685 7.75416L11.2439 1.1295C10.8374 0.72298 10.1783 0.72298 9.77174 1.1295C9.36522 1.53602 9.36522 2.19513 9.77174 2.60165L15.6603 8.49023L9.77174 14.3788C9.36522 14.7853 9.36522 15.4444 9.77174 15.851C10.1783 16.2575 10.8374 16.2575 11.2439 15.851L17.8685 9.22631ZM1.1756 9.5312H17.1325V7.44927H1.1756V9.5312Z" fill="white"/>
</svg>
