<svg width="41" height="41" viewBox="0 0 41 41" fill="none" xmlns="http://www.w3.org/2000/svg">
<circle cx="20.2198" cy="20.2198" r="19.7198" stroke="#292F78"/>
<path d="M25.7803 19.2207C26.3326 19.2207 26.7803 19.6684 26.7803 20.2207C26.7803 20.773 26.3326 21.2207 25.7803 21.2207V19.2207ZM13.9523 20.9278C13.5618 20.5373 13.5618 19.9041 13.9523 19.5136L20.3162 13.1496C20.7068 12.7591 21.3399 12.7591 21.7305 13.1496C22.121 13.5402 22.121 14.1733 21.7305 14.5638L16.0736 20.2207L21.7305 25.8776C22.121 26.2681 22.121 26.9012 21.7305 27.2918C21.3399 27.6823 20.7068 27.6823 20.3162 27.2918L13.9523 20.9278ZM25.7803 21.2207H14.6594V19.2207H25.7803V21.2207Z" fill="#292F78"/>
</svg>
