<svg width="45" height="45" viewBox="0 0 45 45" fill="none" xmlns="http://www.w3.org/2000/svg">
<circle cx="22.5" cy="22.5" r="21.9795" stroke="white" stroke-width="1.04096"/>
<path d="M28.6875 21.459C29.2624 21.459 29.7285 21.9251 29.7285 22.5C29.7285 23.0749 29.2624 23.541 28.6875 23.541V21.459ZM15.5764 23.2361C15.1699 22.8296 15.1699 22.1704 15.5764 21.7639L22.2011 15.1393C22.6076 14.7327 23.2667 14.7327 23.6732 15.1393C24.0798 15.5458 24.0798 16.2049 23.6732 16.6114L17.7846 22.5L23.6732 28.3886C24.0798 28.7951 24.0798 29.4542 23.6732 29.8607C23.2667 30.2673 22.6076 30.2673 22.2011 29.8607L15.5764 23.2361ZM28.6875 23.541H16.3125V21.459H28.6875V23.541Z" fill="white"/>
</svg>
