<svg width="41" height="41" viewBox="0 0 41 41" fill="none" xmlns="http://www.w3.org/2000/svg">
<circle cx="20.2198" cy="20.2198" r="19.7198" stroke="#292F78"/>
<path d="M14.6593 19.2207C14.107 19.2207 13.6593 19.6684 13.6593 20.2207C13.6593 20.773 14.107 21.2207 14.6593 21.2207V19.2207ZM26.4873 20.9278C26.8778 20.5373 26.8778 19.9041 26.4873 19.5136L20.1234 13.1496C19.7328 12.7591 19.0997 12.7591 18.7091 13.1496C18.3186 13.5402 18.3186 14.1733 18.7091 14.5638L24.366 20.2207L18.7091 25.8776C18.3186 26.2681 18.3186 26.9012 18.7091 27.2918C19.0997 27.6823 19.7328 27.6823 20.1234 27.2918L26.4873 20.9278ZM14.6593 21.2207H25.7802V19.2207H14.6593V21.2207Z" fill="#292F78"/>
</svg>
