<svg width="75" height="75" viewBox="0 0 75 75" fill="none" xmlns="http://www.w3.org/2000/svg">
<path d="M54.6875 37.5C53.4443 37.5 52.252 37.0061 51.3729 36.1271C50.4939 35.248 50 34.0557 50 32.8125C50 31.5693 50.4939 30.377 51.3729 29.4979C52.252 28.6189 53.4443 28.125 54.6875 28.125C55.9307 28.125 57.123 28.6189 58.0021 29.4979C58.8811 30.377 59.375 31.5693 59.375 32.8125C59.375 34.0557 58.8811 35.248 58.0021 36.1271C57.123 37.0061 55.9307 37.5 54.6875 37.5ZM45.3125 25C44.0693 25 42.877 24.5061 41.9979 23.6271C41.1189 22.748 40.625 21.5557 40.625 20.3125C40.625 19.0693 41.1189 17.877 41.9979 16.9979C42.877 16.1189 44.0693 15.625 45.3125 15.625C46.5557 15.625 47.748 16.1189 48.6271 16.9979C49.5061 17.877 50 19.0693 50 20.3125C50 21.5557 49.5061 22.748 48.6271 23.6271C47.748 24.5061 46.5557 25 45.3125 25ZM29.6875 25C28.4443 25 27.252 24.5061 26.3729 23.6271C25.4939 22.748 25 21.5557 25 20.3125C25 19.0693 25.4939 17.877 26.3729 16.9979C27.252 16.1189 28.4443 15.625 29.6875 15.625C30.9307 15.625 32.123 16.1189 33.0021 16.9979C33.8811 17.877 34.375 19.0693 34.375 20.3125C34.375 21.5557 33.8811 22.748 33.0021 23.6271C32.123 24.5061 30.9307 25 29.6875 25ZM20.3125 37.5C19.0693 37.5 17.877 37.0061 16.9979 36.1271C16.1189 35.248 15.625 34.0557 15.625 32.8125C15.625 31.5693 16.1189 30.377 16.9979 29.4979C17.877 28.6189 19.0693 28.125 20.3125 28.125C21.5557 28.125 22.748 28.6189 23.6271 29.4979C24.5061 30.377 25 31.5693 25 32.8125C25 34.0557 24.5061 35.248 23.6271 36.1271C22.748 37.0061 21.5557 37.5 20.3125 37.5ZM37.5 9.375C30.0408 9.375 22.8871 12.3382 17.6126 17.6126C12.3382 22.8871 9.375 30.0408 9.375 37.5C9.375 44.9592 12.3382 52.1129 17.6126 57.3874C22.8871 62.6618 30.0408 65.625 37.5 65.625C38.7432 65.625 39.9355 65.1311 40.8146 64.2521C41.6936 63.373 42.1875 62.1807 42.1875 60.9375C42.1875 59.7188 41.7188 58.625 40.9687 57.8125C40.25 56.9688 39.7812 55.875 39.7812 54.6875C39.7812 53.4443 40.2751 52.252 41.1542 51.3729C42.0333 50.4939 43.2255 50 44.4688 50H50C54.144 50 58.1183 48.3538 61.0485 45.4235C63.9788 42.4933 65.625 38.519 65.625 34.375C65.625 20.5625 53.0312 9.375 37.5 9.375Z" fill="white"/>
</svg>
