<svg width="75" height="75" viewBox="0 0 75 75" fill="none" xmlns="http://www.w3.org/2000/svg">
<path d="M33.1148 3.54717L31.6819 8.32607C33.5851 7.9376 35.5525 7.73545 37.5691 7.73545C39.1036 7.73545 40.611 7.85557 42.0823 8.0835L40.7046 3.54688H33.1148V3.54717ZM37.5688 10.7019C22.975 10.7019 11.1738 22.4983 11.1738 37.0919C11.1738 51.6853 22.975 63.4818 37.5688 63.4818C52.1622 63.4818 63.9587 51.6854 63.9587 37.0918C63.9587 22.498 52.1624 10.7016 37.5687 10.7016L37.5688 10.7019ZM37.5688 16.8084C48.7723 16.8084 57.8521 25.8882 57.8521 37.0921C57.8521 48.2955 48.7723 57.3802 37.5687 57.3802C26.3648 57.3802 17.2806 48.2955 17.2806 37.0921C17.2806 25.8882 26.3648 16.8084 37.5687 16.8084H37.5688ZM37.564 22.5122C29.5132 22.5122 22.9844 29.0366 22.9844 37.0874C22.9844 45.1382 29.5132 51.6626 37.564 51.6626C45.6148 51.6626 52.1392 45.1382 52.1392 37.0874C52.1392 29.0366 45.6148 22.5122 37.564 22.5122ZM37.5687 28.3257C42.4103 28.3257 46.3346 32.25 46.3346 37.0919C46.3346 41.9335 42.4103 45.858 37.5686 45.858C32.7265 45.858 28.8022 41.9337 28.8022 37.0918C28.8022 32.2498 32.7265 28.3254 37.5684 28.3254L37.5687 28.3257ZM37.5687 32.853C35.226 32.853 33.325 34.7495 33.325 37.0922C33.325 39.4345 35.226 41.3356 37.5687 41.3356C39.911 41.3356 41.8074 39.4347 41.8074 37.0919C41.8074 34.7497 39.9111 32.8531 37.5686 32.8531L37.5687 32.853ZM16.8319 57.8606L12.7532 71.4654H19.6198L22.5905 62.3375C20.4935 61.0887 18.5592 59.585 16.8319 57.8606ZM57.4356 58.6938C55.6727 60.315 53.7189 61.7154 51.6173 62.864L54.4371 71.4655H61.3083L57.4358 58.6938H57.4356ZM33.2613 66.1323V71.4654H40.892V66.2608C39.7886 66.3855 38.6791 66.4481 37.5687 66.4483C36.1053 66.4483 34.6668 66.3399 33.2609 66.1325L33.2613 66.1323Z" fill="white"/>
</svg>
