<svg width="74" height="74" viewBox="0 0 74 74" fill="none" xmlns="http://www.w3.org/2000/svg">
<path d="M72.1326 36.9902C72.1326 56.3666 56.4239 72.0744 37.0461 72.0744C17.6684 72.0744 1.95969 56.3666 1.95969 36.9902C1.95969 17.6138 17.6684 1.90598 37.0461 1.90598C56.4239 1.90598 72.1326 17.6138 72.1326 36.9902Z" stroke="#292F78" stroke-width="2.73383"/>
<path d="M16.1104 31.3519L37.4684 19.9609L58.8265 31.3519L37.4684 42.7429L16.1104 31.3519Z" stroke="#292F78" stroke-width="2.73383" stroke-linecap="round" stroke-linejoin="round"/>
<path d="M48.1478 56.9813V37.0471L37.4688 31.3516" stroke="#292F78" stroke-width="2.73383" stroke-linecap="round" stroke-linejoin="round"/>
<path d="M53.8428 34.0039V43.7218C53.8415 44.0242 53.7415 44.318 53.558 44.5584C52.3655 46.1602 47.3108 51.9981 37.4683 51.9981C27.6258 51.9981 22.571 46.1602 21.3785 44.5584C21.195 44.318 21.095 44.0242 21.0938 43.7218V34.0039" stroke="#292F78" stroke-width="2.73383" stroke-linecap="round" stroke-linejoin="round"/>
</svg>
