<svg width="75" height="75" viewBox="0 0 75 75" fill="none" xmlns="http://www.w3.org/2000/svg">
<path d="M56.25 31.25H18.75C17.9212 31.25 17.1263 31.5792 16.5403 32.1653C15.9542 32.7513 15.625 33.5462 15.625 34.375C15.625 35.2038 15.9542 35.9987 16.5403 36.5847C17.1263 37.1708 17.9212 37.5 18.75 37.5H21.875V65.625C21.875 66.4538 22.2042 67.2487 22.7903 67.8347C23.3763 68.4208 24.1712 68.75 25 68.75C25.8288 68.75 26.6237 68.4208 27.2097 67.8347C27.7958 67.2487 28.125 66.4538 28.125 65.625V62.5H34.375V65.625C34.375 66.4538 34.7042 67.2487 35.2903 67.8347C35.8763 68.4208 36.6712 68.75 37.5 68.75C38.3288 68.75 39.1237 68.4208 39.7097 67.8347C40.2958 67.2487 40.625 66.4538 40.625 65.625V62.5H46.875V65.625C46.875 66.4538 47.2042 67.2487 47.7903 67.8347C48.3763 68.4208 49.1712 68.75 50 68.75C50.8288 68.75 51.6237 68.4208 52.2097 67.8347C52.7958 67.2487 53.125 66.4538 53.125 65.625V37.5H56.25C57.0788 37.5 57.8737 37.1708 58.4597 36.5847C59.0458 35.9987 59.375 35.2038 59.375 34.375C59.375 33.5462 59.0458 32.7513 58.4597 32.1653C57.8737 31.5792 57.0788 31.25 56.25 31.25ZM34.375 56.25H28.125V50H34.375V56.25ZM34.375 43.75H28.125V37.5H34.375V43.75ZM46.875 56.25H40.625V50H46.875V56.25ZM46.875 43.75H40.625V37.5H46.875V43.75ZM62.5 6.25H12.5C10.0136 6.25 7.62903 7.23772 5.87087 8.99587C4.11272 10.754 3.125 13.1386 3.125 15.625V40.625C3.125 43.1114 4.11272 45.496 5.87087 47.2541C7.62903 49.0123 10.0136 50 12.5 50C13.3288 50 14.1237 49.6708 14.7097 49.0847C15.2958 48.4987 15.625 47.7038 15.625 46.875C15.625 46.0462 15.2958 45.2513 14.7097 44.6653C14.1237 44.0792 13.3288 43.75 12.5 43.75C11.6712 43.75 10.8763 43.4208 10.2903 42.8347C9.70424 42.2487 9.375 41.4538 9.375 40.625V15.625C9.375 14.7962 9.70424 14.0013 10.2903 13.4153C10.8763 12.8292 11.6712 12.5 12.5 12.5H62.5C63.3288 12.5 64.1237 12.8292 64.7097 13.4153C65.2958 14.0013 65.625 14.7962 65.625 15.625V40.625C65.625 41.4538 65.2958 42.2487 64.7097 42.8347C64.1237 43.4208 63.3288 43.75 62.5 43.75C61.6712 43.75 60.8763 44.0792 60.2903 44.6653C59.7042 45.2513 59.375 46.0462 59.375 46.875C59.375 47.7038 59.7042 48.4987 60.2903 49.0847C60.8763 49.6708 61.6712 50 62.5 50C64.9864 50 67.371 49.0123 69.1291 47.2541C70.8873 45.496 71.875 43.1114 71.875 40.625V15.625C71.875 13.1386 70.8873 10.754 69.1291 8.99587C67.371 7.23772 64.9864 6.25 62.5 6.25ZM43.75 25C44.5788 25 45.3737 24.6708 45.9597 24.0847C46.5458 23.4987 46.875 22.7038 46.875 21.875C46.875 21.0462 46.5458 20.2513 45.9597 19.6653C45.3737 19.0792 44.5788 18.75 43.75 18.75H31.25C30.4212 18.75 29.6263 19.0792 29.0403 19.6653C28.4542 20.2513 28.125 21.0462 28.125 21.875C28.125 22.7038 28.4542 23.4987 29.0403 24.0847C29.6263 24.6708 30.4212 25 31.25 25H43.75Z" fill="white"/>
</svg>
