<svg width="40" height="41" viewBox="0 0 40 41" fill="none" xmlns="http://www.w3.org/2000/svg">
<path d="M16.25 14.832H23.75" stroke="white" stroke-width="1.34226" stroke-linecap="round" stroke-linejoin="round"/>
<path d="M35.875 24.5821L29.0469 9.04165C28.3419 8.34303 27.3902 7.95117 26.3984 7.95117C25.4067 7.95117 24.455 8.34303 23.75 9.04165V26.7261" stroke="white" stroke-width="1.34226" stroke-linecap="round" stroke-linejoin="round"/>
<path d="M16.252 26.7261V9.04165C15.547 8.34303 14.5953 7.95117 13.6035 7.95117C12.6118 7.95117 11.6601 8.34303 10.9551 9.04165L4.12695 24.5821" stroke="white" stroke-width="1.34226" stroke-linecap="round" stroke-linejoin="round"/>
<path d="M9.99805 32.9848C13.4498 32.9848 16.248 30.1821 16.248 26.7248C16.248 23.2675 13.4498 20.4648 9.99805 20.4648C6.54627 20.4648 3.74805 23.2675 3.74805 26.7248C3.74805 30.1821 6.54627 32.9848 9.99805 32.9848Z" stroke="white" stroke-width="1.34226" stroke-linecap="round" stroke-linejoin="round"/>
<path d="M30 32.9848C33.4518 32.9848 36.25 30.1821 36.25 26.7248C36.25 23.2675 33.4518 20.4648 30 20.4648C26.5482 20.4648 23.75 23.2675 23.75 26.7248C23.75 30.1821 26.5482 32.9848 30 32.9848Z" stroke="white" stroke-width="1.34226" stroke-linecap="round" stroke-linejoin="round"/>
</svg>
