<svg width="75" height="75" viewBox="0 0 75 75" fill="none" xmlns="http://www.w3.org/2000/svg">
<g clip-path="url(#clip0_1459_15229)">
<path d="M10.75 75.6038C8.34376 75.6038 6.28313 74.7458 4.56813 73.0299C2.85313 71.314 1.99709 69.2537 2.00001 66.849V27.4528C2.00001 26.0667 2.31063 24.7535 2.93188 23.5132C3.55313 22.273 4.40917 21.2516 5.50001 20.4491L31.75 0.750944C33.2812 -0.416352 35.0312 -1 37 -1C38.9687 -1 40.7187 -0.416352 42.25 0.750944L68.5 20.4491C69.5937 21.2516 70.4512 22.273 71.0725 23.5132C71.6937 24.7535 72.0029 26.0667 72 27.4528V66.849C72 69.2566 71.1425 71.3183 69.4275 73.0343C67.7125 74.7502 65.6533 75.6067 63.25 75.6038H10.75ZM10.75 66.849H63.25V27.4528L37 7.75472L10.75 27.4528V66.849ZM28.25 44.9623V60.283C28.25 60.8667 28.4687 61.3774 28.9062 61.8151C29.3437 62.2528 29.8542 62.4717 30.4375 62.4717C31.0208 62.4717 31.5312 62.2528 31.9688 61.8151C32.4062 61.3774 32.625 60.8667 32.625 60.283V44.9623C34.4479 44.9623 35.9981 44.3232 37.2756 43.045C38.5531 41.7668 39.1904 40.2172 39.1875 38.3962V27.4528C39.1875 26.8692 38.9687 26.3585 38.5312 25.9207C38.0938 25.483 37.5833 25.2641 37 25.2641C36.4167 25.2641 35.9062 25.483 35.4687 25.9207C35.0312 26.3585 34.8125 26.8692 34.8125 27.4528V38.3962H32.625V27.4528C32.625 26.8692 32.4062 26.3585 31.9688 25.9207C31.5312 25.483 31.0208 25.2641 30.4375 25.2641C29.8542 25.2641 29.3437 25.483 28.9062 25.9207C28.4687 26.3585 28.25 26.8692 28.25 27.4528V38.3962H26.0625V27.4528C26.0625 26.8692 25.8438 26.3585 25.4063 25.9207C24.9688 25.483 24.4583 25.2641 23.875 25.2641C23.2917 25.2641 22.7812 25.483 22.3438 25.9207C21.9062 26.3585 21.6875 26.8692 21.6875 27.4528V38.3962C21.6875 40.2201 22.3263 41.7712 23.6038 43.0494C24.8813 44.3275 26.43 44.9652 28.25 44.9623ZM47.9375 62.4717C48.5208 62.4717 49.0312 62.2528 49.4687 61.8151C49.9062 61.3774 50.125 60.8667 50.125 60.283V27.8906C50.125 27.3069 49.9062 26.7962 49.4687 26.3585C49.0312 25.9208 48.5208 25.7019 47.9375 25.7019C45.8958 25.7019 44.2917 26.5409 43.125 28.2189C41.9583 29.8969 41.375 31.8302 41.375 34.0189V44.9623C41.375 45.5459 41.5937 46.0566 42.0312 46.4943C42.4687 46.9321 42.9792 47.1509 43.5625 47.1509H45.75V60.283C45.75 60.8667 45.9687 61.3774 46.4062 61.8151C46.8437 62.2528 47.3542 62.4717 47.9375 62.4717Z" fill="white"/>
</g>
<defs>
<clipPath id="clip0_1459_15229">
<rect width="75" height="75" fill="white"/>
</clipPath>
</defs>
</svg>
