<svg width="74" height="73" viewBox="0 0 74 73" fill="none" xmlns="http://www.w3.org/2000/svg">
<path d="M72.2545 36.5C72.2545 56.2441 56.2477 72.25 36.5022 72.25C16.7568 72.25 0.75 56.2441 0.75 36.5C0.75 16.7559 16.7568 0.75 36.5022 0.75C56.2477 0.75 72.2545 16.7559 72.2545 36.5Z" stroke="#292F78" stroke-width="1.5"/>
<path d="M23.166 23.1648V33.3128C23.166 40.6246 29.0228 46.6839 36.3345 46.7392C38.0836 46.7513 39.8179 46.4173 41.4374 45.7563C43.0569 45.0954 44.5296 44.1205 45.7707 42.8879C47.0119 41.6554 47.9969 40.1894 48.669 38.5746C49.3412 36.9597 49.6872 35.2278 49.6872 33.4786V23.1648C49.6872 22.774 49.5319 22.3993 49.2556 22.123C48.9793 21.8466 48.6045 21.6914 48.2138 21.6914H24.6394C24.2486 21.6914 23.8739 21.8466 23.5976 22.123C23.3212 22.3993 23.166 22.774 23.166 23.1648Z" stroke="#292F78" stroke-width="1.5" stroke-linecap="round" stroke-linejoin="round"/>
<path d="M30.5332 54.1094H42.3204" stroke="#292F78" stroke-width="1.5" stroke-linecap="round" stroke-linejoin="round"/>
<path d="M36.4277 46.7383V54.1053" stroke="#292F78" stroke-width="1.5" stroke-linecap="round" stroke-linejoin="round"/>
<path d="M49.3555 36.4271H51.1604C52.7235 36.4271 54.2225 35.8061 55.3278 34.7009C56.433 33.5956 57.054 32.0966 57.054 30.5335V27.5867C57.054 27.1959 56.8987 26.8211 56.6224 26.5448C56.3461 26.2685 55.9713 26.1133 55.5806 26.1133H49.687" stroke="#292F78" stroke-width="1.5" stroke-linecap="round" stroke-linejoin="round"/>
<path d="M23.535 36.4271H21.6748C20.1118 36.4271 18.6127 35.8061 17.5074 34.7009C16.4022 33.5956 15.7813 32.0966 15.7812 30.5335V27.5867C15.7812 27.1959 15.9365 26.8211 16.2128 26.5448C16.4891 26.2685 16.8639 26.1133 17.2546 26.1133H23.1482" stroke="#292F78" stroke-width="1.5" stroke-linecap="round" stroke-linejoin="round"/>
</svg>
