<svg width="23" height="20" viewBox="0 0 23 20" fill="none" xmlns="http://www.w3.org/2000/svg">
<path d="M12.0992 13.6942H16.7544C17.4953 13.6942 18.2057 13.4396 18.7296 12.9862C19.2534 12.5329 19.5476 11.918 19.5476 11.2768V4.83047C19.5476 4.18933 19.2534 3.57443 18.7296 3.12108C18.2057 2.66772 17.4953 2.41309 16.7544 2.41309H5.58182C4.84101 2.41309 4.13053 2.66772 3.6067 3.12108C3.08287 3.57443 2.78866 4.18933 2.78866 4.83047V11.2768C2.78866 11.918 3.08287 12.5329 3.6067 12.9862C4.13053 13.4396 4.84101 13.6942 5.58182 13.6942H7.44392V16.9174L12.0992 13.6942" stroke="white" stroke-width="1.62614" stroke-linecap="round" stroke-linejoin="round"/>
<path fill-rule="evenodd" clip-rule="evenodd" d="M10.5965 10.874H8.37482V8.9512C8.37463 8.75398 8.46521 8.56481 8.62654 8.42553L12.0629 5.45143C12.2239 5.31184 12.4425 5.2334 12.6703 5.2334C12.8982 5.2334 13.1167 5.31184 13.2777 5.45143L14.6403 6.63064C14.8016 6.76996 14.8922 6.95909 14.8922 7.15631C14.8922 7.35353 14.8016 7.54266 14.6403 7.68198L11.2038 10.6561C11.0427 10.7954 10.8243 10.8738 10.5965 10.874V10.874Z" stroke="white" stroke-width="1.62614" stroke-linecap="round" stroke-linejoin="round"/>
</svg>
