<svg width="40" height="41" viewBox="0 0 40 41" fill="none" xmlns="http://www.w3.org/2000/svg">
<path d="M7.09417 28.1335C5.23306 24.9885 4.58206 21.2712 5.2634 17.6795C5.94474 14.0878 7.91156 10.8687 10.7946 8.62658C13.6777 6.38443 17.2787 5.27339 20.9216 5.50206C24.5646 5.73073 27.999 7.28337 30.58 9.86851C33.161 12.4537 34.7111 15.8935 34.9394 19.5423C35.1678 23.1911 34.0585 26.7978 31.8199 29.6855C29.5813 32.5732 26.3674 34.5431 22.7814 35.2256C19.1955 35.908 15.4842 35.2559 12.3442 33.3919V33.3919L7.15667 34.863C6.94414 34.9252 6.71879 34.9291 6.50426 34.8741C6.28973 34.8191 6.09391 34.7074 5.93733 34.5505C5.78075 34.3937 5.66917 34.1976 5.61429 33.9827C5.55942 33.7678 5.56326 33.5421 5.62542 33.3293L7.09417 28.1335Z" stroke="white" stroke-width="1.34226" stroke-linecap="round" stroke-linejoin="round"/>
<path d="M15 17.9609H25" stroke="white" stroke-width="1.34226" stroke-linecap="round" stroke-linejoin="round"/>
<path d="M15 22.9688H25" stroke="white" stroke-width="1.34226" stroke-linecap="round" stroke-linejoin="round"/>
</svg>
