<svg width="60" height="57" viewBox="0 0 60 57" fill="none" xmlns="http://www.w3.org/2000/svg">
<path fill-rule="evenodd" clip-rule="evenodd" d="M35 49.5271H12.5C9.7375 49.5271 7.5 47.4163 7.5 44.8102V23.5841C7.5 20.978 9.7375 18.8672 12.5 18.8672H35C37.7625 18.8672 40 20.978 40 23.5841V44.8102C40 47.4163 37.7625 49.5271 35 49.5271Z" stroke="white" stroke-width="2.5" stroke-linecap="round" stroke-linejoin="round"/>
<path d="M17.8125 35.1619L21.7725 38.8977L30.415 30.7422" stroke="white" stroke-width="2.5" stroke-linecap="round" stroke-linejoin="round"/>
<path d="M17.4984 18.8685V11.7931C17.4984 9.18699 19.7359 7.07617 22.4984 7.07617H47.4984C50.2609 7.07617 52.4984 9.18699 52.4984 11.7931V35.3777C52.4984 37.9838 50.2609 40.0946 47.4984 40.0946H39.9984" stroke="white" stroke-width="2.5" stroke-linecap="round" stroke-linejoin="round"/>
</svg>
