<svg width="20" height="20" viewBox="0 0 20 20" fill="none" xmlns="http://www.w3.org/2000/svg">
<path d="M8.75 7C8.75 7.69036 9.30964 8.25 10 8.25C10.6904 8.25 11.25 7.69036 11.25 7L8.75 7ZM10.8839 5.11612C10.3957 4.62796 9.60427 4.62796 9.11612 5.11612L1.16116 13.0711C0.67301 13.5592 0.67301 14.3507 1.16116 14.8388C1.64932 15.327 2.44078 15.327 2.92893 14.8388L10 7.76777L17.0711 14.8388C17.5592 15.327 18.3507 15.327 18.8388 14.8388C19.327 14.3507 19.327 13.5592 18.8388 13.0711L10.8839 5.11612ZM11.25 7L11.25 6L8.75 6L8.75 7L11.25 7Z" fill="white"/>
</svg>
