<svg width="21" height="20" viewBox="0 0 21 20" fill="none" xmlns="http://www.w3.org/2000/svg">
<path d="M9.75 13C9.75 12.3096 10.3096 11.75 11 11.75C11.6904 11.75 12.25 12.3096 12.25 13L9.75 13ZM11.8839 14.8839C11.3957 15.372 10.6043 15.372 10.1161 14.8839L2.16116 6.92893C1.67301 6.44078 1.67301 5.64932 2.16116 5.16117C2.64932 4.67301 3.44078 4.67301 3.92893 5.16117L11 12.2322L18.0711 5.16116C18.5592 4.67301 19.3507 4.67301 19.8388 5.16116C20.327 5.64932 20.327 6.44078 19.8388 6.92893L11.8839 14.8839ZM12.25 13L12.25 14L9.75 14L9.75 13L12.25 13Z" fill="#AE4029"/>
</svg>
