<svg width="21" height="21" viewBox="0 0 21 21" fill="none" xmlns="http://www.w3.org/2000/svg">
<path d="M4.28087 2.03099L1.28099 5.03087C1.21131 5.10055 1.12859 5.15582 1.03755 5.19354C0.946507 5.23125 0.848929 5.25066 0.750387 5.25066C0.651845 5.25066 0.554268 5.23125 0.463226 5.19354C0.372185 5.15582 0.289463 5.10055 0.219783 5.03087C0.0790584 4.89015 0 4.69928 0 4.50027C0 4.30125 0.0790584 4.11039 0.219783 3.96966L3.21966 0.969783C3.28934 0.900103 3.37207 0.84483 3.46311 0.80712C3.55415 0.769409 3.65173 0.75 3.75027 0.75C3.84881 0.75 3.94639 0.769409 4.03743 0.80712C4.12847 0.84483 4.21119 0.900103 4.28087 0.969783C4.35055 1.03946 4.40582 1.12219 4.44353 1.21323C4.48125 1.30427 4.50065 1.40185 4.50065 1.50039C4.50065 1.59893 4.48125 1.69651 4.44353 1.78755C4.40582 1.87859 4.35055 1.96131 4.28087 2.03099ZM20.7802 3.96966L17.7803 0.969783C17.6396 0.829058 17.4487 0.75 17.2497 0.75C17.0507 0.75 16.8599 0.829058 16.7191 0.969783C16.5784 1.11051 16.4993 1.30137 16.4993 1.50039C16.4993 1.6994 16.5784 1.89027 16.7191 2.03099L19.719 5.03087C19.7887 5.10055 19.8714 5.15582 19.9625 5.19354C20.0535 5.23125 20.1511 5.25066 20.2496 5.25066C20.3482 5.25066 20.4457 5.23125 20.5368 5.19354C20.6278 5.15582 20.7105 5.10055 20.7802 5.03087C20.8499 4.96119 20.9052 4.87847 20.9429 4.78743C20.9806 4.69639 21 4.59881 21 4.50027C21 4.40173 20.9806 4.30415 20.9429 4.21311C20.9052 4.12207 20.8499 4.03934 20.7802 3.96966ZM19.4996 11.25C19.4996 13.03 18.9718 14.77 17.9829 16.2499C16.994 17.7299 15.5885 18.8834 13.944 19.5646C12.2995 20.2457 10.49 20.424 8.74426 20.0767C6.9985 19.7295 5.39491 18.8723 4.13629 17.6137C2.87767 16.3551 2.02054 14.7515 1.67328 13.0057C1.32603 11.26 1.50425 9.45046 2.18541 7.80599C2.86658 6.16152 4.02008 4.75596 5.50007 3.76707C6.98005 2.77818 8.72004 2.25036 10.5 2.25036C12.886 2.25309 15.1735 3.20214 16.8607 4.88931C18.5479 6.57648 19.4969 8.86398 19.4996 11.25ZM16.4998 11.25C16.4998 11.0511 16.4207 10.8603 16.2801 10.7197C16.1395 10.579 15.9487 10.5 15.7498 10.5H11.25V6.00021C11.25 5.8013 11.171 5.61055 11.0303 5.4699C10.8897 5.32925 10.6989 5.25024 10.5 5.25024C10.3011 5.25024 10.1103 5.32925 9.96969 5.4699C9.82904 5.61055 9.75003 5.8013 9.75003 6.00021V11.25C9.75003 11.4489 9.82904 11.6397 9.96969 11.7803C10.1103 11.921 10.3011 12 10.5 12H15.7498C15.9487 12 16.1395 11.921 16.2801 11.7803C16.4207 11.6397 16.4998 11.4489 16.4998 11.25Z" fill="#091E96"/>
</svg>
