<svg width="75" height="75" viewBox="0 0 75 75" fill="none" xmlns="http://www.w3.org/2000/svg">
<g clip-path="url(#clip0_1459_15225)">
<path d="M47.5 72.5H67.5C68.8261 72.5 70.0979 71.9732 71.0355 71.0355C71.9732 70.0979 72.5 68.8261 72.5 67.5V7.5C72.5 6.17392 71.9732 4.90215 71.0355 3.96447C70.0979 3.02678 68.8261 2.5 67.5 2.5H47.5C46.1739 2.5 44.9021 3.02678 43.9645 3.96447C43.0268 4.90215 42.5 6.17392 42.5 7.5V67.5C42.5 68.8261 43.0268 70.0979 43.9645 71.0355C44.9021 71.9732 46.1739 72.5 47.5 72.5ZM47.5 72.5H20M32.5 57.5V72.5M42.5 27.5H72.5M50 57.5H65M7.5 17.5H42.5V57.5H7.5C6.17392 57.5 4.90215 56.9732 3.96447 56.0355C3.02678 55.0979 2.5 53.8261 2.5 52.5V22.5C2.5 21.1739 3.02678 19.9021 3.96447 18.9645C4.90215 18.0268 6.17392 17.5 7.5 17.5Z" stroke="white" stroke-width="8"/>
</g>
<defs>
<clipPath id="clip0_1459_15225">
<rect width="75" height="75" fill="white"/>
</clipPath>
</defs>
</svg>
