<svg width="24" height="25" viewBox="0 0 24 25" fill="none" xmlns="http://www.w3.org/2000/svg">
<path d="M13 4.43945C11.4178 4.43945 9.87103 4.90864 8.55544 5.7877C7.23985 6.66675 6.21447 7.91618 5.60897 9.37798C5.00347 10.8398 4.84504 12.4483 5.15372 14.0002C5.4624 15.552 6.22433 16.9775 7.34315 18.0963C8.46197 19.2151 9.88743 19.977 11.4393 20.2857C12.9911 20.5944 14.5997 20.436 16.0615 19.8305C17.5233 19.225 18.7727 18.1996 19.6518 16.884C20.5308 15.5684 21 14.0217 21 12.4395C20.9978 10.3184 20.1542 8.28488 18.6544 6.78507C17.1546 5.28527 15.121 4.44169 13 4.43945ZM13 19.2087C11.6612 19.2087 10.3524 18.8117 9.23922 18.0679C8.12603 17.324 7.2584 16.2668 6.74605 15.0299C6.2337 13.793 6.09965 12.4319 6.36084 11.1188C6.62203 9.80574 7.26674 8.59958 8.21343 7.65288C9.16013 6.70619 10.3663 6.06148 11.6794 5.80029C12.9925 5.5391 14.3536 5.67315 15.5905 6.1855C16.8274 6.69785 17.8846 7.56547 18.6284 8.67867C19.3722 9.79186 19.7692 11.1006 19.7692 12.4395C19.7672 14.2341 19.0534 15.9547 17.7843 17.2238C16.5153 18.4928 14.7947 19.2066 13 19.2087ZM10.5385 12.4395C10.5385 12.9561 10.701 13.4596 11.0031 13.8787C11.3052 14.2979 11.7315 14.6113 12.2216 14.7747C12.7117 14.938 13.2408 14.9431 13.734 14.789C14.2271 14.635 14.6593 14.3297 14.9692 13.9164C15.0673 13.7858 15.2131 13.6995 15.3748 13.6765C15.5364 13.6535 15.7006 13.6957 15.8312 13.7937C15.9617 13.8917 16.048 14.0376 16.071 14.1992C16.094 14.3609 16.0519 14.525 15.9538 14.6556C15.4888 15.2754 14.8405 15.7331 14.1008 15.964C13.3611 16.1949 12.5676 16.1873 11.8325 15.9421C11.0974 15.697 10.4581 15.2268 10.0051 14.5982C9.55205 13.9695 9.30827 13.2143 9.30827 12.4395C9.30827 11.6646 9.55205 10.9094 10.0051 10.2807C10.4581 9.65208 11.0974 9.1819 11.8325 8.93677C12.5676 8.69164 13.3611 8.68398 14.1008 8.91488C14.8405 9.14578 15.4888 9.60352 15.9538 10.2233C16.0024 10.2879 16.0377 10.3615 16.0578 10.4398C16.0779 10.5181 16.0824 10.5996 16.071 10.6797C16.0596 10.7597 16.0326 10.8367 15.9914 10.9063C15.9503 10.9759 15.8958 11.0367 15.8312 11.0852C15.7665 11.1338 15.6929 11.1691 15.6146 11.1892C15.5363 11.2093 15.4548 11.2138 15.3748 11.2024C15.2947 11.191 15.2177 11.1639 15.1482 11.1228C15.0786 11.0816 15.0178 11.0272 14.9692 10.9625C14.6593 10.5492 14.2271 10.2439 13.734 10.0899C13.2408 9.93584 12.7117 9.94086 12.2216 10.1042C11.7315 10.2676 11.3052 10.581 11.0031 11.0002C10.701 11.4193 10.5385 11.9228 10.5385 12.4395Z" fill="white"/>
</svg>
