<svg width="75" height="75" viewBox="0 0 75 75" fill="none" xmlns="http://www.w3.org/2000/svg">
<path d="M64.0625 21.875H10.9375C9.21161 21.875 7.8125 23.2741 7.8125 25V62.5C7.8125 64.2259 9.21161 65.625 10.9375 65.625H64.0625C65.7884 65.625 67.1875 64.2259 67.1875 62.5V25C67.1875 23.2741 65.7884 21.875 64.0625 21.875Z" stroke="white" stroke-width="5" stroke-linecap="round" stroke-linejoin="round"/>
<path d="M50 34.375H56.25M50 43.75H56.25M50 53.125H56.25" stroke="white" stroke-width="5" stroke-linecap="round" stroke-linejoin="round"/>
<path d="M28.125 54.6875C34.1656 54.6875 39.0625 49.7906 39.0625 43.75C39.0625 37.7094 34.1656 32.8125 28.125 32.8125C22.0844 32.8125 17.1875 37.7094 17.1875 43.75C17.1875 49.7906 22.0844 54.6875 28.125 54.6875Z" stroke="white" stroke-width="5"/>
<path d="M15.625 21.875V9.375H59.375V21.875" stroke="white" stroke-width="5" stroke-linecap="round" stroke-linejoin="round"/>
</svg>
