<svg width="23" height="20" viewBox="0 0 23 20" fill="none" xmlns="http://www.w3.org/2000/svg">
<path fill-rule="evenodd" clip-rule="evenodd" d="M17.0245 16.6788L20.2018 13.9289C20.5657 13.614 20.5657 13.1042 20.2018 12.79L18.7258 11.5126C18.3619 11.1976 17.7728 11.1976 17.4098 11.5126L14.2325 14.2624C14.0576 14.4138 13.9599 14.6184 13.9599 14.8319V16.9148H16.3666C16.6132 16.9148 16.8496 16.8302 17.0245 16.6788V16.6788Z" stroke="white" stroke-width="1.62614" stroke-linecap="round" stroke-linejoin="round"/>
<path d="M6.51464 11.2768H10.2373" stroke="white" stroke-width="1.62614" stroke-linecap="round" stroke-linejoin="round"/>
<path d="M6.51464 7.24941H13.96" stroke="white" stroke-width="1.62614" stroke-linecap="round" stroke-linejoin="round"/>
<path d="M17.6824 8.05443V5.63806C17.6824 4.30341 16.4325 3.22168 14.8904 3.22168H5.58375C4.04164 3.22168 2.79176 4.30341 2.79176 5.63806V12.8872C2.79176 14.2218 4.04164 15.3036 5.58375 15.3036H10.2371" stroke="white" stroke-width="1.62614" stroke-linecap="round" stroke-linejoin="round"/>
</svg>
