<svg width="74" height="74" viewBox="0 0 74 74" fill="none" xmlns="http://www.w3.org/2000/svg">
<path d="M72.1336 36.9902C72.1336 56.3666 56.4249 72.0744 37.0471 72.0744C17.6693 72.0744 1.96067 56.3666 1.96067 36.9902C1.96067 17.6138 17.6693 1.90598 37.0471 1.90598C56.4249 1.90598 72.1336 17.6138 72.1336 36.9902Z" stroke="#292F78" stroke-width="2.73383"/>
<path d="M20.21 52.706V24.2286C20.21 23.8509 20.36 23.4888 20.627 23.2217C20.894 22.9547 21.2562 22.8047 21.6338 22.8047H52.959C53.3367 22.8047 53.6988 22.9547 53.9659 23.2217C54.2329 23.4888 54.3829 23.8509 54.3829 24.2286V52.706L48.6874 49.8583L42.9919 52.706L37.2964 49.8583L31.6009 52.706L25.9054 49.8583L20.21 52.706Z" stroke="#292F78" stroke-width="2.73383" stroke-linecap="round" stroke-linejoin="round"/>
<path d="M27.3291 42.7386L33.0246 31.3477L38.7201 42.7386" stroke="#292F78" stroke-width="2.73383" stroke-linecap="round" stroke-linejoin="round"/>
<path d="M28.7529 39.8906H37.2962" stroke="#292F78" stroke-width="2.73383" stroke-linecap="round" stroke-linejoin="round"/>
<path d="M41.5684 37.043H48.6877" stroke="#292F78" stroke-width="2.73383" stroke-linecap="round" stroke-linejoin="round"/>
<path d="M45.1279 33.4844V40.6037" stroke="#292F78" stroke-width="2.73383" stroke-linecap="round" stroke-linejoin="round"/>
</svg>
