<svg width="40" height="41" viewBox="0 0 40 41" fill="none" xmlns="http://www.w3.org/2000/svg">
<path d="M16.2509 5.44141V15.1131C16.2494 15.3382 16.1902 15.5591 16.079 15.7547L6.14151 32.3437C6.02873 32.533 5.96783 32.7487 5.96495 32.9691C5.96207 33.1894 6.01733 33.4067 6.12513 33.5988C6.23294 33.7909 6.38947 33.9512 6.57891 34.0633C6.76834 34.1754 6.98398 34.2355 7.20401 34.2374H32.7978C33.0178 34.2355 33.2334 34.1754 33.4229 34.0633C33.6123 33.9512 33.7688 33.7909 33.8766 33.5988C33.9844 33.4067 34.0397 33.1894 34.0368 32.9691C34.034 32.7487 33.973 32.533 33.8603 32.3437L23.9228 15.7547C23.8116 15.5591 23.7524 15.3382 23.7509 15.1131V5.44141" stroke="white" stroke-width="1.34226" stroke-linecap="round" stroke-linejoin="round"/>
<path d="M13.752 5.44141H26.252" stroke="white" stroke-width="1.34226" stroke-linecap="round" stroke-linejoin="round"/>
<path d="M9.7793 26.256C11.623 24.8945 14.7949 24.1276 19.998 26.7255C25.5762 29.5269 28.8262 28.4157 30.6074 26.8977" stroke="white" stroke-width="1.34226" stroke-linecap="round" stroke-linejoin="round"/>
</svg>
