<svg width="41" height="40" viewBox="0 0 41 40" fill="none" xmlns="http://www.w3.org/2000/svg">
<path d="M20.5586 34.7242C28.8429 34.7242 35.5586 28.1445 35.5586 20.0281C35.5586 11.9117 28.8429 5.33203 20.5586 5.33203C12.2743 5.33203 5.55859 11.9117 5.55859 20.0281C5.55859 28.1445 12.2743 34.7242 20.5586 34.7242Z" stroke="white" stroke-width="1.34226" stroke-miterlimit="10"/>
<path d="M6.41797 15.1289H34.6992" stroke="white" stroke-width="1.34226" stroke-linecap="round" stroke-linejoin="round"/>
<path d="M6.41797 24.9277H34.6992" stroke="white" stroke-width="1.34226" stroke-linecap="round" stroke-linejoin="round"/>
<path d="M20.5586 34.3266C24.0104 34.3266 26.8086 27.9251 26.8086 20.0285C26.8086 12.1319 24.0104 5.73047 20.5586 5.73047C17.1068 5.73047 14.3086 12.1319 14.3086 20.0285C14.3086 27.9251 17.1068 34.3266 20.5586 34.3266Z" stroke="white" stroke-width="1.34226" stroke-miterlimit="10"/>
</svg>
