<svg width="60" height="60" viewBox="0 0 60 60" fill="none" xmlns="http://www.w3.org/2000/svg">
<path d="M30 52.5C42.4264 52.5 52.5 42.4264 52.5 30C52.5 17.5736 42.4264 7.5 30 7.5C17.5736 7.5 7.5 17.5736 7.5 30C7.5 42.4264 17.5736 52.5 30 52.5Z" stroke="#AE4029" stroke-width="2" stroke-miterlimit="10"/>
<path d="M8.78906 22.5H51.2109" stroke="#AE4029" stroke-width="2" stroke-linecap="round" stroke-linejoin="round"/>
<path d="M8.78906 37.5H51.2109" stroke="#AE4029" stroke-width="2" stroke-linecap="round" stroke-linejoin="round"/>
<path d="M30 51.8906C35.1777 51.8906 39.375 42.0899 39.375 30C39.375 17.9101 35.1777 8.10938 30 8.10938C24.8223 8.10938 20.625 17.9101 20.625 30C20.625 42.0899 24.8223 51.8906 30 51.8906Z" stroke="#AE4029" stroke-width="2" stroke-miterlimit="10"/>
</svg>
