<svg width="74" height="74" viewBox="0 0 74 74" fill="none" xmlns="http://www.w3.org/2000/svg">
<path d="M72.0877 36.9902C72.0877 56.3666 56.379 72.0744 37.0012 72.0744C17.6234 72.0744 1.91477 56.3666 1.91477 36.9902C1.91477 17.6138 17.6234 1.90598 37.0012 1.90598C56.379 1.90598 72.0877 17.6138 72.0877 36.9902Z" stroke="#292F78" stroke-width="2.73383"/>
<path d="M36.7543 45.0907C44.6182 45.0907 50.9931 38.7158 50.9931 30.852C50.9931 22.9882 44.6182 16.6133 36.7543 16.6133C28.8905 16.6133 22.5156 22.9882 22.5156 30.852C22.5156 38.7158 28.8905 45.0907 36.7543 45.0907Z" stroke="#292F78" stroke-width="2.73383" stroke-linecap="round" stroke-linejoin="round"/>
<path d="M36.7542 39.3951C41.4725 39.3951 45.2974 35.5701 45.2974 30.8518C45.2974 26.1335 41.4725 22.3086 36.7542 22.3086C32.0359 22.3086 28.2109 26.1335 28.2109 30.8518C28.2109 35.5701 32.0359 39.3951 36.7542 39.3951Z" stroke="#292F78" stroke-width="2.73383" stroke-linecap="round" stroke-linejoin="round"/>
<path d="M45.2974 42.2422V56.4809L36.7542 52.2093L28.2109 56.4809V42.2422" stroke="#292F78" stroke-width="2.73383" stroke-linecap="round" stroke-linejoin="round"/>
</svg>
