<svg width="33" height="34" viewBox="0 0 33 34" fill="none" xmlns="http://www.w3.org/2000/svg">
<rect y="0.439453" width="33" height="33" rx="16.5" fill="url(#paint0_linear_2364_6009)"/>
<path d="M13.7538 16.9819C13.7538 15.4619 14.9854 14.2293 16.505 14.2293C18.0246 14.2293 19.2569 15.4619 19.2569 16.9819C19.2569 18.502 18.0246 19.7346 16.505 19.7346C14.9854 19.7346 13.7538 18.502 13.7538 16.9819ZM12.2662 16.9819C12.2662 19.3237 14.1639 21.222 16.505 21.222C18.8461 21.222 20.7438 19.3237 20.7438 16.9819C20.7438 14.6402 18.8461 12.7419 16.505 12.7419C14.1639 12.7419 12.2662 14.6402 12.2662 16.9819ZM19.921 12.5738C19.921 12.7698 19.979 12.9614 20.0878 13.1244C20.1965 13.2873 20.3512 13.4144 20.5322 13.4895C20.7132 13.5646 20.9123 13.5843 21.1045 13.5461C21.2967 13.5079 21.4732 13.4136 21.6118 13.2751C21.7504 13.1366 21.8448 12.9601 21.8831 12.7679C21.9214 12.5757 21.9019 12.3764 21.827 12.1954C21.7521 12.0143 21.6252 11.8595 21.4623 11.7505C21.2995 11.6416 21.108 11.5834 20.912 11.5833H20.9116C20.649 11.5834 20.3972 11.6878 20.2115 11.8735C20.0257 12.0592 19.9213 12.3111 19.921 12.5738V12.5738ZM13.17 23.7032C12.3652 23.6666 11.9277 23.5325 11.637 23.4192C11.2516 23.2691 10.9766 23.0903 10.6875 22.8015C10.3984 22.5127 10.2194 22.2379 10.07 21.8524C9.95672 21.5617 9.82266 21.124 9.78608 20.319C9.74606 19.4486 9.73807 19.1871 9.73807 16.982C9.73807 14.7769 9.74672 14.5162 9.78608 13.6451C9.82273 12.84 9.95778 12.4032 10.07 12.1116C10.2201 11.7261 10.3988 11.451 10.6875 11.1618C10.9762 10.8726 11.251 10.6936 11.637 10.5442C11.9276 10.4308 12.3652 10.2967 13.17 10.2601C14.0401 10.2201 14.3015 10.2121 16.505 10.2121C18.7085 10.2121 18.9701 10.2208 19.841 10.2601C20.6458 10.2968 21.0825 10.4319 21.374 10.5442C21.7594 10.6936 22.0344 10.873 22.3235 11.1618C22.6126 11.4507 22.7909 11.7261 22.941 12.1116C23.0543 12.4023 23.1884 12.84 23.2249 13.6451C23.265 14.5162 23.2729 14.7769 23.2729 16.982C23.2729 19.1871 23.265 19.4478 23.2249 20.319C23.1883 21.124 23.0536 21.5616 22.941 21.8524C22.7909 22.2379 22.6122 22.513 22.3235 22.8015C22.0348 23.0901 21.7594 23.2691 21.374 23.4192C21.0834 23.5325 20.6458 23.6666 19.841 23.7032C18.9709 23.7432 18.7095 23.7512 16.505 23.7512C14.3005 23.7512 14.0399 23.7432 13.17 23.7032V23.7032ZM13.1017 8.77462C12.2229 8.81465 11.6224 8.95403 11.098 9.15815C10.5548 9.36895 10.0951 9.65174 9.63564 10.1106C9.1762 10.5694 8.89421 11.0301 8.68348 11.5733C8.47942 12.0982 8.34007 12.6986 8.30005 13.5776C8.25937 14.458 8.25006 14.7395 8.25006 16.9819C8.25006 19.2244 8.25937 19.5058 8.30005 20.3863C8.34007 21.2654 8.47942 21.8657 8.68348 22.3906C8.89421 22.9335 9.17627 23.3947 9.63564 23.8533C10.095 24.3119 10.5548 24.5943 11.098 24.8057C11.6234 25.0099 12.2229 25.1492 13.1017 25.1893C13.9823 25.2293 14.2632 25.2393 16.505 25.2393C18.7468 25.2393 19.0282 25.23 19.9084 25.1893C20.7872 25.1492 21.3873 25.0099 21.9121 24.8057C22.4548 24.5943 22.9149 24.3121 23.3744 23.8533C23.8338 23.3945 24.1152 22.9335 24.3265 22.3906C24.5306 21.8657 24.6706 21.2653 24.71 20.3863C24.75 19.5052 24.7593 19.2244 24.7593 16.9819C24.7593 14.7395 24.75 14.458 24.71 13.5776C24.6699 12.6985 24.5306 12.0979 24.3265 11.5733C24.1152 11.0304 23.8331 10.5702 23.3744 10.1106C22.9157 9.65102 22.4548 9.36895 21.9127 9.15815C21.3873 8.95403 20.7872 8.81399 19.909 8.77462C19.0288 8.73458 18.7475 8.72461 16.5057 8.72461C14.2639 8.72461 13.9823 8.73392 13.1017 8.77462Z" fill="white"/>
<defs>
<linearGradient id="paint0_linear_2364_6009" x1="32.3657" y1="33.4395" x2="-0.634259" y2="0.439452" gradientUnits="userSpaceOnUse">
<stop stop-color="#FBE18A"/>
<stop offset="0.21" stop-color="#FCBB45"/>
<stop offset="0.38" stop-color="#F75274"/>
<stop offset="0.52" stop-color="#D53692"/>
<stop offset="0.74" stop-color="#8F39CE"/>
<stop offset="1" stop-color="#5B4FE9"/>
</linearGradient>
</defs>
</svg>
