<svg width="80" height="80" viewBox="0 0 80 80" fill="none" xmlns="http://www.w3.org/2000/svg">
<path d="M12.5 62.5H67.5V25C67.5 24.337 67.2366 23.7011 66.7678 23.2322C66.2989 22.7634 65.663 22.5 65 22.5H52.5C51.837 22.5 51.2011 22.7634 50.7322 23.2322C50.2634 23.7011 50 24.337 50 25V32.5H30V15C30 14.337 29.7366 13.7011 29.2678 13.2322C28.7989 12.7634 28.163 12.5 27.5 12.5H15C14.337 12.5 13.7011 12.7634 13.2322 13.2322C12.7634 13.7011 12.5 14.337 12.5 15V62.5Z" stroke="#292F78" stroke-width="3" stroke-linecap="round" stroke-linejoin="round"/>
<path d="M30 42.5H12.5" stroke="#292F78" stroke-width="3" stroke-linecap="round" stroke-linejoin="round"/>
<path d="M30 62.5V32.5" stroke="#292F78" stroke-width="3" stroke-linecap="round" stroke-linejoin="round"/>
<path d="M50 42.5H67.5" stroke="#292F78" stroke-width="3" stroke-linecap="round" stroke-linejoin="round"/>
<path d="M50 62.5V32.5" stroke="#292F78" stroke-width="3" stroke-linecap="round" stroke-linejoin="round"/>
</svg>
