<svg width="75" height="75" viewBox="0 0 75 75" fill="none" xmlns="http://www.w3.org/2000/svg">
<path d="M14.9447 73H59.2781C61.525 73 63.4478 72.2025 65.0466 70.6074C66.6454 69.0124 67.4879 66.9844 67.5744 64.5234V64.25C67.5744 62.0625 67.0126 60.0117 65.8892 58.0977L45.4077 29.25V8.87891H48.1299C48.8213 8.87891 49.4694 8.5599 50.0744 7.92188C50.6793 7.28385 50.9818 6.60026 50.9818 5.87109C50.9818 5.14193 50.6793 4.48112 50.0744 3.88867C49.4694 3.29622 48.8213 3 48.1299 3H26.0929C25.4015 3 24.7534 3.29622 24.1484 3.88867C23.5435 4.48112 23.241 5.14193 23.241 5.87109C23.241 6.60026 23.5435 7.28385 24.1484 7.92188C24.7534 8.5599 25.4015 8.87891 26.0929 8.87891H28.8151V28.9766L8.59288 57.8242C7.46943 59.7383 6.9077 61.6979 6.9077 63.7031L6.64844 64.25C6.73486 66.7109 7.59905 68.7845 9.24103 70.4707C10.883 72.1569 12.7842 73 14.9447 73ZM28.8151 38.8203L30.241 37.1797C32.3151 34.0807 33.6978 30.5716 34.3892 26.6523V8.87891H39.8336V26.3789C40.6114 30.6628 41.9941 34.1263 43.9818 36.7695L45.4077 38.5469L50.9818 46.4766H23.241L28.8151 38.8203ZM13.0003 61.3789L20.5188 50.5781V52.6289H55.1299L61.2225 61.3789C61.3954 61.5612 61.6546 62.4271 62.0003 63.9766C62.0003 64.7969 61.7194 65.526 61.1577 66.1641C60.596 66.8021 59.9694 67.1211 59.2781 67.1211H14.9447C14.2534 67.1211 13.6268 66.8021 13.0651 66.1641C12.5034 65.526 12.2225 64.7969 12.2225 63.9766C12.2225 62.7917 12.4818 61.9258 13.0003 61.3789Z" fill="white"/>
</svg>
