<svg width="74" height="74" viewBox="0 0 74 74" fill="none" xmlns="http://www.w3.org/2000/svg">
<path d="M72.1804 36.9902C72.1804 56.3666 56.4718 72.0744 37.094 72.0744C17.7162 72.0744 2.00754 56.3666 2.00754 36.9902C2.00754 17.6138 17.7162 1.90598 37.094 1.90598C56.4718 1.90598 72.1804 17.6138 72.1804 36.9902Z" stroke="#292F78" stroke-width="2.73383"/>
<path d="M20.625 44.5312V24.8438C20.625 24.4708 20.7732 24.1131 21.0369 23.8494C21.3006 23.5857 21.6583 23.4375 22.0312 23.4375H52.9688C53.3417 23.4375 53.6994 23.5857 53.9631 23.8494C54.2268 24.1131 54.375 24.4708 54.375 24.8438V44.5312" stroke="#292F78" stroke-width="3" stroke-linecap="round" stroke-linejoin="round"/>
<path d="M17.8125 50.1562H57.1875" stroke="#292F78" stroke-width="3" stroke-linecap="round" stroke-linejoin="round"/>
<path d="M36.0938 50.1562V44.5312H47.3438V50.1562" stroke="#292F78" stroke-width="3" stroke-linecap="round" stroke-linejoin="round"/>
</svg>
