<svg width="75" height="75" viewBox="0 0 75 75" fill="none" xmlns="http://www.w3.org/2000/svg">
<g clip-path="url(#clip0_1459_15241)">
<path d="M19.5021 11.7517C19.5021 10.7572 19.0411 9.80345 18.2205 9.10023C17.3999 8.39702 16.287 8.00195 15.1265 8.00195H6.37551C5.21506 8.00195 4.10213 8.39702 3.28156 9.10023C2.46099 9.80345 2 10.7572 2 11.7517V64.2482C2 65.2427 2.46099 66.1965 3.28156 66.8997C4.10213 67.6029 5.21506 67.998 6.37551 67.998H15.1265C16.287 67.998 17.3999 67.6029 18.2205 66.8997C19.0411 66.1965 19.5021 65.2427 19.5021 64.2482M19.5021 11.7517V64.2482M19.5021 11.7517C19.5021 10.7572 19.963 9.80345 20.7836 9.10023C21.6042 8.39702 22.7171 8.00195 23.8776 8.00195H32.6286C33.7891 8.00195 34.902 8.39702 35.7225 9.10023C36.5431 9.80345 37.0041 10.7572 37.0041 11.7517V64.2482C37.0041 65.2427 36.5431 66.1965 35.7225 66.8997C34.902 67.6029 33.7891 67.998 32.6286 67.998H23.8776C22.7171 67.998 21.6042 67.6029 20.7836 66.8997C19.963 66.1965 19.5021 65.2427 19.5021 64.2482M2 23.001H19.5021M19.5021 52.999H37.0041" stroke="white" stroke-width="6" stroke-linecap="round" stroke-linejoin="round"/>
<path d="M41.38 26.7507L58.882 23.001M50.131 52.999L67.2962 49.3243M40.518 10.1019L50.0741 8.11448C52.5332 7.60827 55.0316 8.82694 55.6835 10.8593L71.8511 61.1735C72.1363 62.0946 72.01 63.0738 71.4969 63.9193C70.9837 64.7648 70.1208 65.4156 69.077 65.7444L68.4951 65.8982L58.9389 67.8855C56.4799 68.3917 53.9815 67.1731 53.3295 65.1407L37.162 14.8265C36.8768 13.9054 37.0031 12.9262 37.5162 12.0807C38.0293 11.2352 38.8923 10.5844 39.9361 10.2556L40.518 10.1019Z" stroke="white" stroke-width="6" stroke-linecap="round" stroke-linejoin="round"/>
</g>
<defs>
<clipPath id="clip0_1459_15241">
<rect width="75" height="75" fill="white"/>
</clipPath>
</defs>
</svg>
