<svg width="14" height="14" viewBox="0 0 14 14" fill="none" xmlns="http://www.w3.org/2000/svg">
<path d="M6.60234 3.02158L7.99453 1.62939C8.58397 1.09215 9.35774 0.802685 10.1551 0.821144C10.9524 0.839603 11.7119 1.16457 12.2759 1.72851C12.8398 2.29245 13.1648 3.05201 13.1832 3.84933C13.2017 4.64665 12.9122 5.42043 12.375 6.00986L10.3852 7.99268C10.0984 8.28053 9.75759 8.50893 9.38234 8.66477C9.00709 8.82062 8.60476 8.90084 8.19844 8.90084C7.79211 8.90084 7.38979 8.82062 7.01453 8.66477C6.63928 8.50893 6.2985 8.28053 6.01172 7.99268" fill="#292F78"/>
<path d="M6.60234 3.02158L7.99453 1.62939C8.58397 1.09215 9.35774 0.802685 10.1551 0.821144C10.9524 0.839603 11.7119 1.16457 12.2759 1.72851C12.8398 2.29245 13.1648 3.05201 13.1832 3.84933C13.2017 4.64665 12.9122 5.42043 12.375 6.00986L10.3852 7.99268C10.0984 8.28053 9.75759 8.50893 9.38234 8.66477C9.00709 8.82062 8.60476 8.90084 8.19844 8.90084C7.79211 8.90084 7.38979 8.82062 7.01454 8.66477C6.63928 8.50893 6.2985 8.28053 6.01172 7.99268" stroke="white" stroke-width="1.5" stroke-linecap="round" stroke-linejoin="round"/>
<path d="M7.40205 10.9808L6.00986 12.373C5.42043 12.9102 4.64665 13.1997 3.84933 13.1813C3.05201 13.1628 2.29245 12.8378 1.72851 12.2739C1.16457 11.7099 0.839603 10.9504 0.821144 10.1531C0.802685 9.35575 1.09215 8.58198 1.62939 7.99254L3.61924 6.00973C3.90601 5.72188 4.2468 5.49348 4.62205 5.33763C4.9973 5.18179 5.39963 5.10156 5.80596 5.10156C6.21228 5.10156 6.61461 5.18179 6.98986 5.33763C7.36511 5.49348 7.7059 5.72188 7.99268 6.00973" fill="#292F78"/>
<path d="M7.40205 10.9808L6.00986 12.373C5.42043 12.9102 4.64665 13.1997 3.84933 13.1813C3.05201 13.1628 2.29245 12.8378 1.72851 12.2739C1.16457 11.7099 0.839603 10.9504 0.821144 10.1531C0.802685 9.35575 1.09215 8.58198 1.62939 7.99254L3.61924 6.00973C3.90601 5.72188 4.2468 5.49348 4.62205 5.33763C4.9973 5.18179 5.39963 5.10156 5.80596 5.10156C6.21228 5.10156 6.61461 5.18179 6.98986 5.33763C7.36511 5.49348 7.7059 5.72188 7.99268 6.00973" stroke="white" stroke-width="1.5" stroke-linecap="round" stroke-linejoin="round"/>
</svg>
