<svg width="12" height="14" viewBox="0 0 12 14" fill="none" xmlns="http://www.w3.org/2000/svg">
<path d="M4.83984 5.29688V13.0006" stroke="#292F78" stroke-width="1.8" stroke-linecap="round" stroke-linejoin="round"/>
<path d="M1.32031 5.29688V13.0006" stroke="#292F78" stroke-width="1.8" stroke-linecap="round" stroke-linejoin="round"/>
<path d="M4.83984 8.66725C4.83984 7.77337 5.16434 6.9161 5.74195 6.28403C6.31957 5.65197 7.10298 5.29688 7.91984 5.29688C8.73671 5.29688 9.52012 5.65197 10.0977 6.28403C10.6753 6.9161 10.9998 7.77337 10.9998 8.66725V13.0006" stroke="#292F78" stroke-width="1.8" stroke-linecap="round" stroke-linejoin="round"/>
<path d="M1.32 2.88889C2.04902 2.88889 2.64 2.24219 2.64 1.44444C2.64 0.6467 2.04902 0 1.32 0C0.590984 0 0 0.6467 0 1.44444C0 2.24219 0.590984 2.88889 1.32 2.88889Z" fill="#292F78"/>
</svg>
