<svg width="33" height="34" viewBox="0 0 33 34" fill="none" xmlns="http://www.w3.org/2000/svg">
<rect y="0.439453" width="33" height="33" rx="16.5" fill="#006699"/>
<path d="M12.704 23.6255V14.7112H9.74371V23.6255H12.7043H12.704ZM11.2245 13.4944C12.2566 13.4944 12.8992 12.8098 12.8992 11.9544C12.8798 11.0795 12.2566 10.4141 11.2441 10.4141C10.2309 10.4141 9.56921 11.0795 9.56921 11.9543C9.56921 12.8098 10.2115 13.4943 11.2051 13.4943H11.2243L11.2245 13.4944ZM14.3426 23.6255H17.3027V18.6479C17.3027 18.3818 17.322 18.1151 17.4002 17.925C17.6141 17.3925 18.1012 16.8413 18.9192 16.8413C19.9901 16.8413 20.4188 17.6586 20.4188 18.8571V23.6255H23.3788V18.5143C23.3788 15.7764 21.9185 14.5022 19.9709 14.5022C18.3742 14.5022 17.6729 15.3955 17.2832 16.0039H17.3029V14.7115H14.3428C14.3814 15.5478 14.3425 23.6258 14.3425 23.6258L14.3426 23.6255Z" fill="white"/>
</svg>
