<svg width="33" height="32" viewBox="0 0 33 32" fill="none" xmlns="http://www.w3.org/2000/svg">
<path d="M27.0156 4.5H6.01562C5.46334 4.5 5.01562 4.94772 5.01562 5.5V26.5C5.01562 27.0523 5.46334 27.5 6.01562 27.5H27.0156C27.5679 27.5 28.0156 27.0523 28.0156 26.5V5.5C28.0156 4.94772 27.5679 4.5 27.0156 4.5Z" stroke="black" stroke-width="2" stroke-linecap="round" stroke-linejoin="round"/>
<path d="M15.5156 14V22" stroke="black" stroke-width="2" stroke-linecap="round" stroke-linejoin="round"/>
<path d="M11.5156 14V22" stroke="black" stroke-width="2" stroke-linecap="round" stroke-linejoin="round"/>
<path d="M15.5156 17.5C15.5156 16.5717 15.8844 15.6815 16.5408 15.0251C17.1971 14.3687 18.0874 14 19.0156 14C19.9439 14 20.8341 14.3687 21.4905 15.0251C22.1469 15.6815 22.5156 16.5717 22.5156 17.5V22" stroke="black" stroke-width="2" stroke-linecap="round" stroke-linejoin="round"/>
<path d="M11.5156 11.5C12.3441 11.5 13.0156 10.8284 13.0156 10C13.0156 9.17157 12.3441 8.5 11.5156 8.5C10.6872 8.5 10.0156 9.17157 10.0156 10C10.0156 10.8284 10.6872 11.5 11.5156 11.5Z" fill="black"/>
</svg>
