<svg width="75" height="75" viewBox="0 0 75 75" fill="none" xmlns="http://www.w3.org/2000/svg">
<path d="M9 10C5.115 10 2 13.0594 2 16.875V58.125C2 59.9484 2.7375 61.697 4.05025 62.9864C5.36301 64.2757 7.14348 65 9 65H65C66.8565 65 68.637 64.2757 69.9497 62.9864C71.2625 61.697 72 59.9484 72 58.125V16.875C72 15.0516 71.2625 13.303 69.9497 12.0136C68.637 10.7243 66.8565 10 65 10H9ZM9 16.875H33.5V24.1969C27.34 25.7781 23 31.2437 23 37.5C23.0083 40.5451 24.043 43.5017 25.9425 45.9084C27.8421 48.315 30.4995 50.0362 33.5 50.8031V58.125H9V51.25H19.5V23.75H9V16.875ZM40.5 16.875H65V23.75H54.5V51.25H65V58.125H40.5V50.8031C46.66 49.2219 51 43.7562 51 37.5C50.9917 34.4549 49.957 31.4983 48.0575 29.0916C46.158 26.685 43.5005 24.9638 40.5 24.1969V16.875ZM9 30.625H12.5V44.375H9V30.625ZM61.5 30.625H65V44.375H61.5V30.625ZM40.5 31.5531C42.67 32.7906 44 35.0594 44 37.5C44 39.9406 42.67 42.2094 40.5 43.4469V31.5531ZM33.5 31.5531V43.4469C31.33 42.2094 30 39.9406 30 37.5C30 35.0594 31.33 32.7906 33.5 31.5531Z" fill="white"/>
</svg>
