<svg width="75" height="75" viewBox="0 0 75 75" fill="none" xmlns="http://www.w3.org/2000/svg">
<path d="M68.5 31H54.5V24L38.75 17.7V10H47.5V3H35.25V17.7L19.5 24V31H5.5C3.575 31 2 32.575 2 34.5V73H30V55.5H44V73H72V34.5C72 32.575 70.425 31 68.5 31ZM23 66H9V55.5H23V66ZM23 48.5H9V38H23V48.5ZM37 24C38.925 24 40.5 25.575 40.5 27.5C40.5 29.425 38.925 31 37 31C35.075 31 33.5 29.425 33.5 27.5C33.5 25.575 35.075 24 37 24ZM44 48.5H30V38H44V48.5ZM65 66H51V55.5H65V66ZM65 48.5H51V38H65V48.5Z" fill="white"/>
</svg>
