<svg width="75" height="75" viewBox="0 0 75 75" fill="none" xmlns="http://www.w3.org/2000/svg">
<path d="M71.971 12.4041L62.596 3.02908C62.1989 2.63249 61.6726 2.39158 61.1129 2.35015C60.5532 2.30872 59.9972 2.46951 59.546 2.8033C59.0948 3.13709 58.7784 3.62171 58.6542 4.16905C58.5301 4.7164 58.6064 5.29012 58.8695 5.78592L41.1683 23.4842C34.4916 20.0096 27.015 20.2996 22.4857 24.826C21.2904 26.0263 20.3541 27.4592 19.7347 29.0359C19.5445 29.4634 19.2342 29.8263 18.8415 30.0807C18.4488 30.335 17.9907 30.4698 17.5228 30.4685C13.2484 30.6121 9.53648 32.1443 6.7855 34.8953C3.24644 38.4431 1.75816 43.5349 2.56089 49.239C3.34019 54.697 6.1732 60.1023 10.5472 64.4529C14.9212 68.8035 20.3148 71.6482 25.7816 72.4275C26.7612 72.5739 27.7501 72.6503 28.7406 72.656C33.2289 72.656 37.1869 71.1238 40.096 68.2146C42.847 65.4636 44.3792 61.7517 44.5228 57.4773C44.5223 57.0085 44.6584 56.5497 44.9143 56.1569C45.1703 55.7641 45.5351 55.4543 45.9642 55.2654C47.5411 54.6464 48.974 53.71 50.1742 52.5144C54.7005 47.9851 54.9906 40.5027 51.516 33.8318L69.2142 16.1306C69.71 16.3937 70.2837 16.4701 70.8311 16.3459C71.3784 16.2218 71.863 15.9053 72.1968 15.4541C72.5306 15.0029 72.6914 14.4469 72.65 13.8872C72.6085 13.3275 72.3676 12.8012 71.971 12.4041ZM58.5941 20.1209L54.8792 16.406L62.1097 9.17263L65.8275 12.8904L58.5941 20.1209ZM46.8753 49.198C46.1283 49.9419 45.2356 50.5234 44.2533 50.906C42.9766 51.432 41.881 52.3188 41.1005 53.4578C40.32 54.5968 39.8885 55.9387 39.8587 57.3191C39.7533 60.3836 38.6869 63.0056 36.8031 64.9011C34.3304 67.3709 30.6507 68.4021 26.4437 67.7986C21.973 67.1629 17.4994 64.8015 13.849 61.1511C10.1986 57.5008 7.83726 53.0271 7.20152 48.5769C6.61558 44.367 7.62925 40.6902 10.099 38.2176C11.9945 36.3279 14.6166 35.2674 17.681 35.156C19.0616 35.127 20.4038 34.6958 21.5429 33.9152C22.6821 33.1346 23.5687 32.0386 24.0941 30.7615C24.4749 29.7739 25.0565 28.8761 25.8021 28.1248C27.4105 26.5164 29.6107 25.7429 32.0658 25.7429C33.9972 25.7739 35.9028 26.1912 37.6703 26.9705L31.7875 32.8679C30.0313 33.0613 28.3656 33.747 26.9822 34.8459C25.5989 35.9448 24.5541 37.4122 23.9685 39.079C23.3829 40.7459 23.2802 42.5443 23.6722 44.267C24.0643 45.9896 24.9351 47.5665 26.1844 48.8158C27.4336 50.065 29.0105 50.9359 30.7332 51.3279C32.4558 51.7199 34.2542 51.6172 35.9211 51.0316C37.5879 50.446 39.0554 49.4013 40.1543 48.0179C41.2532 46.6345 41.9388 44.9688 42.1322 43.2127L48.015 37.3299C49.9251 41.8094 49.6498 46.409 46.8753 49.198ZM43.8285 31.1863C44.4477 31.8091 45.0279 32.4696 45.5658 33.1638L41.0482 37.6814C40.1864 36.1166 38.8982 34.8284 37.3334 33.9666L41.8509 29.4461C42.5402 29.9854 43.1957 30.5666 43.8138 31.1863H43.8285ZM32.8128 37.4998C34.056 37.4998 35.2483 37.9936 36.1274 38.8727C37.0065 39.7518 37.5003 40.9441 37.5003 42.1873C37.5003 43.1144 37.2254 44.0207 36.7104 44.7915C36.1953 45.5624 35.4632 46.1632 34.6067 46.518C33.7501 46.8728 32.8076 46.9656 31.8984 46.7847C30.9891 46.6038 30.1538 46.1574 29.4983 45.5018C28.8427 44.8463 28.3963 44.0111 28.2154 43.1018C28.0345 42.1925 28.1274 41.25 28.4822 40.3935C28.8369 39.5369 29.4378 38.8048 30.2086 38.2898C30.9795 37.7747 31.8857 37.4998 32.8128 37.4998ZM47.1244 27.8758C46.5024 27.2558 45.8482 26.669 45.1644 26.1179L51.5628 19.7195L55.2806 23.4373L48.8851 29.8299C48.3333 29.1477 47.7465 28.4945 47.1273 27.8728L47.1244 27.8758ZM27.4369 56.9353C27.8766 57.3747 28.1239 57.9708 28.1241 58.5925C28.1244 59.2142 27.8777 59.8105 27.4383 60.2503C26.9989 60.6901 26.4028 60.9373 25.7812 60.9375C25.1595 60.9378 24.5632 60.6911 24.1234 60.2517L14.7484 50.8767C14.309 50.437 14.0623 49.8406 14.0626 49.219C14.0629 48.5973 14.3101 48.0012 14.7499 47.5618C15.1896 47.1224 15.786 46.8757 16.4076 46.876C17.0293 46.8763 17.6254 47.1235 18.0648 47.5633L27.4369 56.9353Z" fill="white"/>
</svg>
