<svg width="25" height="25" viewBox="0 0 25 25" fill="none" xmlns="http://www.w3.org/2000/svg">
<path d="M8.00001 23.5858H2.00001C1.73479 23.5858 1.48044 23.4805 1.2929 23.2929C1.10536 23.1054 1.00001 22.851 1.00001 22.5858V16.9983C0.999551 16.8685 1.02471 16.7398 1.07404 16.6197C1.12338 16.4996 1.19591 16.3904 1.28751 16.2983L16.2875 1.29833C16.3806 1.20384 16.4915 1.12881 16.6138 1.07759C16.7361 1.02638 16.8674 1 17 1C17.1326 1 17.2639 1.02638 17.3862 1.07759C17.5085 1.12881 17.6195 1.20384 17.7125 1.29833L23.2875 6.87333C23.382 6.96638 23.457 7.07729 23.5082 7.19961C23.5595 7.32193 23.5858 7.45322 23.5858 7.58583C23.5858 7.71844 23.5595 7.84972 23.5082 7.97204C23.457 8.09437 23.382 8.20528 23.2875 8.29833L8.00001 23.5858Z" stroke="white" stroke-width="2" stroke-linecap="round" stroke-linejoin="round"/>
<path d="M23 23.5859H8" stroke="white" stroke-width="2" stroke-linecap="round" stroke-linejoin="round"/>
<path d="M13 4.58594L20 11.5859" stroke="white" stroke-width="2" stroke-linecap="round" stroke-linejoin="round"/>
</svg>
