<svg width="60" height="60" viewBox="0 0 60 60" fill="none" xmlns="http://www.w3.org/2000/svg">
<circle cx="30" cy="30" r="30" fill="white"/>
<path d="M30.0013 36.7702C32.8778 36.7702 35.2096 34.4383 35.2096 31.5618C35.2096 28.6854 32.8778 26.3535 30.0013 26.3535C27.1248 26.3535 24.793 28.6854 24.793 31.5618C24.793 34.4383 27.1248 36.7702 30.0013 36.7702Z" stroke="#AE4029" stroke-linecap="round" stroke-linejoin="round"/>
<path d="M38.8555 28.4375C40.0687 28.4355 41.2656 28.717 42.3507 29.2595C43.4358 29.8021 44.3792 30.5907 45.1055 31.5625" stroke="#AE4029" stroke-linecap="round" stroke-linejoin="round"/>
<path d="M14.8984 31.5625C15.6247 30.5907 16.5681 29.8021 17.6532 29.2595C18.7383 28.717 19.9352 28.4355 21.1484 28.4375" stroke="#AE4029" stroke-linecap="round" stroke-linejoin="round"/>
<path d="M22.5039 41.4576C23.1899 40.0528 24.2566 38.8688 25.5826 38.0407C26.9086 37.2125 28.4405 36.7734 30.0039 36.7734C31.5673 36.7734 33.0992 37.2125 34.4252 38.0407C35.7512 38.8688 36.8179 40.0528 37.5039 41.4576" stroke="#AE4029" stroke-linecap="round" stroke-linejoin="round"/>
<path d="M21.1475 28.4368C20.3566 28.4376 19.5819 28.2134 18.9138 27.7902C18.2457 27.3671 17.7118 26.7625 17.3745 26.0472C17.0372 25.3319 16.9105 24.5354 17.0091 23.7508C17.1077 22.9661 17.4275 22.2257 17.9313 21.6161C18.435 21.0064 19.1018 20.5528 19.8539 20.308C20.6059 20.0633 21.412 20.0377 22.178 20.2341C22.9441 20.4305 23.6384 20.8408 24.1799 21.4172C24.7214 21.9936 25.0877 22.7121 25.236 23.4889" stroke="#AE4029" stroke-linecap="round" stroke-linejoin="round"/>
<path d="M34.7695 23.4889C34.9178 22.7121 35.2841 21.9936 35.8256 21.4172C36.3671 20.8408 37.0614 20.4305 37.8275 20.2341C38.5935 20.0377 39.3997 20.0633 40.1517 20.308C40.9037 20.5528 41.5705 21.0064 42.0743 21.6161C42.578 22.2257 42.8979 22.9661 42.9965 23.7508C43.095 24.5354 42.9683 25.3319 42.631 26.0472C42.2937 26.7625 41.7598 27.3671 41.0917 27.7902C40.4236 28.2134 39.6489 28.4376 38.8581 28.4368" stroke="#AE4029" stroke-linecap="round" stroke-linejoin="round"/>
</svg>
