<svg width="21" height="20" viewBox="0 0 21 20" fill="none" xmlns="http://www.w3.org/2000/svg">
<path d="M20.8831 18.8005C19.391 16.2301 17.0027 14.3009 14.176 13.3828C15.5309 12.5771 16.5838 11.3488 17.1729 9.88671C17.7621 8.42459 17.8549 6.80948 17.4371 5.2895C17.0193 3.76951 16.1141 2.42874 14.8604 1.47314C13.6067 0.517551 12.0739 0 10.4976 0C8.9212 0 7.38845 0.517551 6.13476 1.47314C4.88107 2.42874 3.97579 3.76951 3.558 5.2895C3.14022 6.80948 3.23303 8.42459 3.82218 9.88671C4.41133 11.3488 5.46423 12.5771 6.81913 13.3828C3.99244 14.3009 1.6041 16.2301 0.112001 18.8005C0.0387436 18.921 0 19.0593 0 19.2003C0 19.3413 0.0387436 19.4796 0.112001 19.6001C0.180348 19.7227 0.280498 19.8245 0.401886 19.8949C0.523275 19.9652 0.661404 20.0015 0.801706 20H20.1934C20.3337 20.0015 20.4718 19.9652 20.5932 19.8949C20.7146 19.8245 20.8148 19.7227 20.8831 19.6001C20.9564 19.4796 20.9951 19.3413 20.9951 19.2003C20.9951 19.0593 20.9564 18.921 20.8831 18.8005Z" fill="#292F78"/>
</svg>
