<svg width="32" height="32" viewBox="0 0 32 32" fill="none" xmlns="http://www.w3.org/2000/svg">
<path d="M11.5625 15.601C12.5915 17.726 14.3098 19.4399 16.4375 20.4635C16.5944 20.5378 16.768 20.57 16.9412 20.5568C17.1143 20.5437 17.2811 20.4857 17.425 20.3885L20.55 18.301C20.6881 18.2074 20.8476 18.1502 21.0137 18.1349C21.1799 18.1196 21.3472 18.1467 21.5 18.2135L27.35 20.726C27.5499 20.8092 27.717 20.9559 27.8254 21.1433C27.9338 21.3308 27.9776 21.5487 27.95 21.7635C27.7646 23.2107 27.0582 24.5407 25.9631 25.5047C24.8679 26.4687 23.459 27.0007 22 27.001C17.4913 27.001 13.1673 25.2099 9.97919 22.0218C6.79107 18.8337 5 14.5097 5 10.001C5.00033 8.54201 5.53227 7.13312 6.49628 6.03796C7.4603 4.94281 8.79033 4.23643 10.2375 4.05102C10.4523 4.02343 10.6702 4.06721 10.8577 4.17563C11.0452 4.28404 11.1918 4.45108 11.275 4.65102L13.7875 10.5135C13.8528 10.664 13.8802 10.8281 13.8671 10.9916C13.854 11.1551 13.8009 11.3129 13.7125 11.451L11.625 14.626C11.5321 14.7696 11.4775 14.9347 11.4666 15.1054C11.4556 15.2761 11.4887 15.4467 11.5625 15.601Z" stroke="#292F78" stroke-width="1.6" stroke-linecap="round" stroke-linejoin="round"/>
</svg>
