<svg width="16" height="16" viewBox="0 0 16 16" fill="none" xmlns="http://www.w3.org/2000/svg">
<path d="M11.0125 14.5C9.69675 14.5033 8.39328 14.2466 7.17702 13.7446C5.96075 13.2426 4.85567 12.5052 3.92527 11.5748C2.99487 10.6444 2.25748 9.5393 1.75547 8.32304C1.25346 7.10678 0.996734 5.80331 1.00003 4.48753C1.00334 3.56144 1.37355 2.67441 2.02957 2.02073C2.68559 1.36705 3.57394 1.00002 4.50003 1.00003V1.00003C4.65283 0.998807 4.80312 1.0388 4.93511 1.11579C5.06709 1.19278 5.17588 1.30392 5.25003 1.43753L6.71253 3.98753C6.7995 4.14254 6.84414 4.31772 6.84194 4.49545C6.83975 4.67318 6.7908 4.84721 6.70003 5.00003L5.52503 6.96253C6.12688 8.30139 7.19867 9.37318 8.53753 9.97503L10.5 8.80003C10.6529 8.70925 10.8269 8.66031 11.0046 8.65812C11.1823 8.65592 11.3575 8.70055 11.5125 8.78753L14.0625 10.25C14.1961 10.3242 14.3073 10.433 14.3843 10.5649C14.4613 10.6969 14.5013 10.8472 14.5 11C14.4968 11.9251 14.1287 12.8116 13.4757 13.4669C12.8227 14.1222 11.9376 14.4934 11.0125 14.5V14.5Z" stroke="#292F78" stroke-width="1.5" stroke-linecap="round" stroke-linejoin="round"/>
</svg>
