<svg width="76" height="79" viewBox="0 0 76 79" fill="none" xmlns="http://www.w3.org/2000/svg">
<path d="M10.834 40.125L1.45898 30.75C0.708984 30 0.333984 29.125 0.333984 28.125C0.333984 27.125 0.708984 26.25 1.45898 25.5L10.834 16.125C11.584 15.375 12.459 15 13.459 15C14.459 15 15.334 15.375 16.084 16.125L25.459 25.5C26.209 26.25 26.584 27.125 26.584 28.125C26.584 29.125 26.209 30 25.459 30.75L16.084 40.125C15.334 40.875 14.459 41.25 13.459 41.25C12.459 41.25 11.584 40.875 10.834 40.125ZM30.334 78.75C29.2715 78.75 28.3802 78.39 27.6602 77.67C26.9402 76.95 26.5815 76.06 26.584 75V60C23.459 59.75 20.3652 59.4062 17.3027 58.9687C14.2402 58.5312 11.1777 57.9687 8.11523 57.2812C7.05273 57.0312 6.19273 56.4375 5.53523 55.5C4.87773 54.5625 4.70648 53.5625 5.02148 52.5C5.33398 51.4375 5.97523 50.6562 6.94523 50.1562C7.91523 49.6562 8.93023 49.5312 9.99023 49.7812C14.5527 50.8437 19.1627 51.5625 23.8202 51.9375C28.4777 52.3125 33.149 52.5 37.834 52.5C42.5215 52.5 47.194 52.3125 51.8515 51.9375C56.509 51.5625 61.1177 50.8437 65.6777 49.7812C66.7402 49.5312 67.7565 49.6562 68.7265 50.1562C69.6965 50.6562 70.3365 51.4375 70.6465 52.5C70.959 53.5625 70.7865 54.5625 70.129 55.5C69.4715 56.4375 68.6127 57.0312 67.5527 57.2812C64.4902 57.9687 61.4277 58.5312 58.3652 58.9687C55.3027 59.4062 52.209 59.75 49.084 60V75C49.084 76.0625 48.7252 76.9537 48.0077 77.6737C47.2902 78.3937 46.399 78.7525 45.334 78.75H30.334ZM13.459 32.25L17.584 28.125L13.459 24L9.33398 28.125L13.459 32.25ZM37.834 22.5C34.709 22.5 32.0527 21.4062 29.8652 19.2187C27.6777 17.0312 26.584 14.375 26.584 11.25C26.584 8.125 27.6777 5.46875 29.8652 3.28125C32.0527 1.09375 34.709 0 37.834 0C40.959 0 43.6152 1.09375 45.8027 3.28125C47.9902 5.46875 49.084 8.125 49.084 11.25C49.084 14.375 47.9902 17.0312 45.8027 19.2187C43.6152 21.4062 40.959 22.5 37.834 22.5ZM37.834 48.75C35.7715 48.75 34.0052 48.0162 32.5352 46.5487C31.0652 45.0812 30.3315 43.315 30.334 41.25C30.334 39.1875 31.069 37.4212 32.539 35.9512C34.009 34.4812 35.774 33.7475 37.834 33.75C39.8965 33.75 41.6627 34.485 43.1327 35.955C44.6027 37.425 45.3365 39.19 45.334 41.25C45.334 43.3125 44.599 45.0787 43.129 46.5487C41.659 48.0187 39.894 48.7525 37.834 48.75ZM37.834 15C38.8965 15 39.7877 14.6412 40.5077 13.9237C41.2277 13.2062 41.5865 12.315 41.584 11.25C41.584 10.1875 41.224 9.29625 40.504 8.57625C39.784 7.85625 38.894 7.4975 37.834 7.5C36.7715 7.5 35.8802 7.86 35.1602 8.58C34.4402 9.3 34.0815 10.19 34.084 11.25C34.084 12.3125 34.444 13.2037 35.164 13.9237C35.884 14.6437 36.774 15.0025 37.834 15ZM55.7402 39.375L51.4277 31.875C51.1152 31.3125 50.959 30.6875 50.959 30C50.959 29.3125 51.1152 28.6875 51.4277 28.125L55.7402 20.625C56.0527 20 56.4902 19.5312 57.0527 19.2187C57.6152 18.9062 58.2402 18.75 58.9277 18.75H67.3652C68.0527 18.75 68.6777 18.9062 69.2402 19.2187C69.8027 19.5312 70.2402 20 70.5527 20.625L74.8652 28.125C75.1777 28.6875 75.334 29.3125 75.334 30C75.334 30.6875 75.1777 31.3125 74.8652 31.875L70.5527 39.375C70.2402 40 69.8027 40.4687 69.2402 40.7812C68.6777 41.0937 68.0527 41.25 67.3652 41.25H58.9277C58.2402 41.25 57.6152 41.0937 57.0527 40.7812C56.4902 40.4687 56.0527 40 55.7402 39.375ZM61.084 33.75H65.209L67.2715 30L65.209 26.25H61.084L59.0215 30L61.084 33.75Z" fill="white"/>
</svg>
