<svg width="36" height="35" viewBox="0 0 36 35" fill="none" xmlns="http://www.w3.org/2000/svg">
<ellipse cx="17.8416" cy="17.4272" rx="17.2522" ry="16.851" fill="#292F78"/>
<path d="M25.3093 23.715H19.5728C19.0123 21.9082 18.7321 20.0358 18.7321 18.0976C18.7321 16.1266 19.2431 14.5662 20.2651 13.4165C21.3201 12.2339 22.8697 11.6426 24.9137 11.6426V14.402C23.2653 14.402 22.4411 15.4039 22.4411 17.4078V18.344H25.3093V23.715ZM16.9518 23.715H11.2153C10.6548 21.9082 10.3746 20.0358 10.3746 18.0976C10.3746 16.1266 10.8856 14.5662 11.9076 13.4165C12.9626 12.2339 14.5121 11.6426 16.5562 11.6426V14.402C14.9078 14.402 14.0835 15.4039 14.0835 17.4078V18.344H16.9518V23.715Z" fill="white"/>
</svg>
