<svg width="36" height="36" viewBox="0 0 36 36" fill="none" xmlns="http://www.w3.org/2000/svg">
<ellipse cx="18" cy="17.5814" rx="18" ry="17.5814" fill="#292F78"/>
<path d="M25.793 24.1425H19.8079C19.2231 22.2575 18.9307 20.3038 18.9307 18.2817C18.9307 16.2253 19.4639 14.5972 20.5302 13.3977C21.6309 12.1638 23.2476 11.5469 25.3803 11.5469V14.4259C23.6604 14.4259 22.8004 15.4712 22.8004 17.5619V18.5387H25.793V24.1425ZM17.0732 24.1425H11.0881C10.5033 22.2575 10.2109 20.3038 10.2109 18.2817C10.2109 16.2253 10.7441 14.5972 11.8104 13.3977C12.9111 12.1638 14.5278 11.5469 16.6605 11.5469V14.4259C14.9406 14.4259 14.0807 15.4712 14.0807 17.5619V18.5387H17.0732V24.1425Z" fill="white"/>
</svg>
