<svg width="154" height="275" viewBox="0 0 154 275" fill="none" xmlns="http://www.w3.org/2000/svg">
<path d="M108.959 94.9797C107.551 90.6464 103.488 87.4505 98.6673 87.4505H93.2507V71.2005C93.2507 69.7639 92.68 68.3862 91.6641 67.3704C90.6483 66.3545 89.2706 65.7839 87.834 65.7839H55.334V54.9505H66.1673C67.6039 54.9505 68.9817 54.3798 69.9975 53.364C71.0133 52.3482 71.584 50.9704 71.584 49.5339V38.7005H82.4173C85.2905 38.7005 88.046 37.5592 90.0776 35.5275C92.1093 33.4959 93.2507 30.7404 93.2507 27.8672V25.6464C99.7316 28.2592 105.483 32.4035 110.012 37.7246C114.541 43.0457 117.714 49.3852 119.258 56.2002C120.802 63.0153 120.672 70.103 118.878 76.8566C117.084 83.6103 113.681 89.8287 108.959 94.9797ZM71.584 108.738C50.1882 106.084 33.6673 87.8839 33.6673 65.7839C33.6673 62.4255 34.1007 59.1755 34.8048 56.088L60.7507 82.0339V87.4505C60.7507 90.3237 61.892 93.0792 63.9237 95.1108C65.9553 97.1425 68.7108 98.2839 71.584 98.2839M77.0007 11.6172C69.8874 11.6172 62.8438 13.0183 56.272 15.7404C49.7002 18.4625 43.7289 22.4524 38.699 27.4822C28.5408 37.6405 22.834 51.418 22.834 65.7839C22.834 80.1497 28.5408 93.9273 38.699 104.085C43.7289 109.115 49.7002 113.105 56.272 115.827C62.8438 118.549 69.8874 119.951 77.0007 119.951C91.3665 119.951 105.144 114.244 115.302 104.085C125.46 93.9273 131.167 80.1497 131.167 65.7839C131.167 58.6706 129.766 51.627 127.044 45.0552C124.322 38.4834 120.332 32.5121 115.302 27.4822C110.272 22.4524 104.301 18.4625 97.7293 15.7404C91.1575 13.0183 84.1139 11.6172 77.0007 11.6172Z" fill="white"/>
<path d="M77 152.867C71.0437 152.867 65.3313 155.233 61.1196 159.445C56.9078 163.657 54.5417 169.369 54.5417 175.326C54.5417 181.282 56.9078 186.994 61.1196 191.206C65.3313 195.418 71.0437 197.784 77 197.784C82.9563 197.784 88.6687 195.418 92.8804 191.206C97.0922 186.994 99.4583 181.282 99.4583 175.326C99.4583 169.369 97.0922 163.657 92.8804 159.445C88.6687 155.233 82.9563 152.867 77 152.867ZM77 165.701C79.5527 165.701 82.0009 166.715 83.8059 168.52C85.6109 170.325 86.625 172.773 86.625 175.326C86.625 177.878 85.6109 180.326 83.8059 182.131C82.0009 183.936 79.5527 184.951 77 184.951C74.4473 184.951 71.9991 183.936 70.1941 182.131C68.3891 180.326 67.375 177.878 67.375 175.326C67.375 172.773 68.3891 170.325 70.1941 168.52C71.9991 166.715 74.4473 165.701 77 165.701ZM35.2917 172.117C31.0372 172.117 26.9569 173.807 23.9485 176.816C20.9401 179.824 19.25 183.904 19.25 188.159C19.25 194.191 22.6508 199.388 27.5275 202.147C29.8375 203.431 32.4683 204.201 35.2917 204.201C38.115 204.201 40.7458 203.431 43.0558 202.147C45.43 200.8 47.4192 198.875 48.895 196.565C44.2204 190.473 41.6934 183.004 41.7083 175.326V173.529C39.7833 172.631 37.6017 172.117 35.2917 172.117ZM118.708 172.117C116.398 172.117 114.217 172.631 112.292 173.529V175.326C112.292 183.026 109.789 190.469 105.105 196.565C105.875 197.784 106.709 198.746 107.672 199.709C110.631 202.578 114.587 204.188 118.708 204.201C121.532 204.201 124.162 203.431 126.472 202.147C131.349 199.388 134.75 194.191 134.75 188.159C134.75 183.904 133.06 179.824 130.051 176.816C127.043 173.807 122.963 172.117 118.708 172.117ZM77 210.617C61.985 210.617 32.0833 218.125 32.0833 233.076V242.701H121.917V233.076C121.917 218.125 92.015 210.617 77 210.617ZM30.2225 214.146C17.8383 215.622 0 221.911 0 233.076V242.701H19.25V230.316C19.25 223.836 23.6775 218.446 30.2225 214.146ZM123.778 214.146C130.323 218.446 134.75 223.836 134.75 230.316V242.701H154V233.076C154 221.911 136.162 215.622 123.778 214.146ZM77 223.451C86.8175 223.451 97.79 226.659 104.142 229.867H49.8575C56.21 226.659 67.1825 223.451 77 223.451Z" fill="white"/>
</svg>
