<svg width="26" height="26" viewBox="0 0 26 26" fill="none" xmlns="http://www.w3.org/2000/svg">
<path fill-rule="evenodd" clip-rule="evenodd" d="M19.6532 22.3408L23.3151 18.6789C23.7345 18.2595 23.7345 17.5805 23.3151 17.1622L21.614 15.461C21.1946 15.0416 20.5156 15.0416 20.0973 15.461L16.4354 19.1229C16.2337 19.3246 16.1211 19.597 16.1211 19.8813V22.6551H18.8949C19.1791 22.6551 19.4516 22.5424 19.6532 22.3408V22.3408Z" stroke="white" stroke-width="1.60892" stroke-linecap="round" stroke-linejoin="round"/>
<path d="M7.53906 15.1457H11.8295" stroke="white" stroke-width="1.60892" stroke-linecap="round" stroke-linejoin="round"/>
<path d="M7.53906 9.7824H16.12" stroke="white" stroke-width="1.60892" stroke-linecap="round" stroke-linejoin="round"/>
<path d="M20.4118 10.8556V7.63777C20.4118 5.86044 18.9713 4.41992 17.194 4.41992H6.46785C4.69052 4.41992 3.25 5.86044 3.25 7.63777V17.2913C3.25 19.0686 4.69052 20.5092 6.46785 20.5092H11.8309" stroke="white" stroke-width="1.60892" stroke-linecap="round" stroke-linejoin="round"/>
</svg>
