<svg width="21" height="21" viewBox="0 0 21 21" fill="none" xmlns="http://www.w3.org/2000/svg">
<path fill-rule="evenodd" clip-rule="evenodd" d="M15.8375 17.7807L18.7014 14.9169C19.0294 14.5889 19.0294 14.0579 18.7014 13.7307L17.371 12.4003C17.043 12.0723 16.512 12.0723 16.1848 12.4003L13.321 15.2641C13.1633 15.4218 13.0752 15.6349 13.0752 15.8572V18.0265H15.2445C15.4668 18.0265 15.6798 17.9384 15.8375 17.7807V17.7807Z" stroke="#AE4029" stroke-width="1.25828" stroke-linecap="round" stroke-linejoin="round"/>
<path d="M6.36426 12.1538H9.71967" stroke="#AE4029" stroke-width="1.25828" stroke-linecap="round" stroke-linejoin="round"/>
<path d="M6.36426 7.95947H13.0751" stroke="#AE4029" stroke-width="1.25828" stroke-linecap="round" stroke-linejoin="round"/>
<path d="M16.4304 8.79874V6.28218C16.4304 4.8922 15.3039 3.76562 13.9139 3.76562H5.52535C4.13537 3.76562 3.00879 4.8922 3.00879 6.28218V13.8319C3.00879 15.2218 4.13537 16.3484 5.52535 16.3484H9.71961" stroke="#AE4029" stroke-width="1.25828" stroke-linecap="round" stroke-linejoin="round"/>
</svg>
