<svg width="21" height="26" viewBox="0 0 21 26" fill="none" xmlns="http://www.w3.org/2000/svg">
<path d="M4.45455 16.456C6.36244 16.456 7.90909 14.9093 7.90909 13.0014C7.90909 11.0935 6.36244 9.54688 4.45455 9.54688C2.54665 9.54688 1 11.0935 1 13.0014C1 14.9093 2.54665 16.456 4.45455 16.456Z" stroke="white" stroke-width="2" stroke-linecap="round" stroke-linejoin="round"/>
<path d="M16.5444 24.2275C18.4523 24.2275 19.9989 22.6808 19.9989 20.7729C19.9989 18.865 18.4523 17.3184 16.5444 17.3184C14.6365 17.3184 13.0898 18.865 13.0898 20.7729C13.0898 22.6808 14.6365 24.2275 16.5444 24.2275Z" stroke="white" stroke-width="2" stroke-linecap="round" stroke-linejoin="round"/>
<path d="M16.5444 8.68253C18.4523 8.68253 19.9989 7.13588 19.9989 5.22798C19.9989 3.32009 18.4523 1.77344 16.5444 1.77344C14.6365 1.77344 13.0898 3.32009 13.0898 5.22798C13.0898 7.13588 14.6365 8.68253 16.5444 8.68253Z" stroke="white" stroke-width="2" stroke-linecap="round" stroke-linejoin="round"/>
<path d="M13.6423 7.09766L7.35938 11.1352" stroke="white" stroke-width="2" stroke-linecap="round" stroke-linejoin="round"/>
<path d="M7.35938 14.8691L13.6423 18.9066" stroke="white" stroke-width="2" stroke-linecap="round" stroke-linejoin="round"/>
</svg>
