<svg width="75" height="75" viewBox="0 0 75 75" fill="none" xmlns="http://www.w3.org/2000/svg">
<path d="M37 3C17.68 3 2 18.68 2 38C2 57.32 17.68 73 37 73C56.32 73 72 57.32 72 38C72 18.68 56.32 3 37 3ZM40.5 14.55L45.225 11.225C51.5563 13.1869 56.9876 17.3286 60.555 22.915L59.19 27.605L54.465 29.215L40.5 19.45V14.55ZM28.775 11.225L33.5 14.55V19.45L19.535 29.215L14.81 27.605L13.445 22.915C17.0332 17.3478 22.4567 13.212 28.775 11.225ZM19.78 55.885L15.79 56.235C11.4026 51.1739 8.99123 44.6981 9 38C9 37.58 9.035 37.195 9.07 36.775L12.57 34.22L17.4 35.9L22.51 51.09L19.78 55.885ZM45.75 64.565C42.985 65.475 40.045 66 37 66C33.955 66 31.015 65.475 28.25 64.565L25.835 59.35L28.075 55.5H45.96L48.2 59.385L45.75 64.565ZM44.945 48.5H29.055L24.33 34.43L37 25.54L49.705 34.43L44.945 48.5ZM58.21 56.235L54.22 55.885L51.455 51.09L56.565 35.9L61.43 34.255L64.93 36.81C64.965 37.195 65 37.58 65 38C65 44.965 62.445 51.335 58.21 56.235Z" fill="white"/>
</svg>
