<svg width="60" height="57" viewBox="0 0 60 57" fill="none" xmlns="http://www.w3.org/2000/svg">
<path fill-rule="evenodd" clip-rule="evenodd" d="M22.0675 44.0025H15.865C14.48 44.0025 13.3575 42.9436 13.3575 41.637V35.7833C13.3575 35.156 13.0925 34.5546 12.6225 34.1112L8.235 29.9721C7.255 29.0476 7.255 27.5499 8.235 26.6278L12.6675 22.4462C13.11 22.0288 13.3575 21.4651 13.3575 20.8755V14.9676C13.3575 13.661 14.48 12.602 15.865 12.602H22.07C22.735 12.602 23.3725 12.352 23.8425 11.9087L28.23 7.76956C29.21 6.84504 30.7975 6.84504 31.775 7.76956L36.1625 11.9087C36.6325 12.352 37.27 12.602 37.935 12.602H44.14C45.525 12.602 46.6475 13.661 46.6475 14.9676V20.8213C46.6475 21.4486 46.9125 22.05 47.3825 22.4934L51.77 26.6325C52.75 27.557 52.75 29.0546 51.77 29.9768L47.3825 34.1159C46.9125 34.5593 46.6475 35.1607 46.6475 35.788V41.6417C46.6475 42.9483 45.525 44.0073 44.14 44.0073H37.935C37.27 44.0073 36.6325 44.2572 36.1625 44.7006L31.775 48.8397C30.795 49.7642 29.2075 49.7642 28.23 48.8397L23.8425 44.7006C23.37 44.2502 22.7325 44.0025 22.0675 44.0025Z" stroke="white" stroke-width="2.5" stroke-linecap="round" stroke-linejoin="round"/>
<path d="M37.5 24.7637L28.125 33.6079L22.5 28.3014" stroke="white" stroke-width="2.5" stroke-linecap="round" stroke-linejoin="round"/>
</svg>
