<svg width="75" height="75" viewBox="0 0 75 75" fill="none" xmlns="http://www.w3.org/2000/svg">
<path d="M15.6188 12.4368C14.7401 11.5581 13.3155 11.5581 12.4368 12.4368C11.5581 13.3155 11.5581 14.7401 12.4368 15.6188L23.2701 26.4521C24.1488 27.3308 25.5734 27.3308 26.4521 26.4521C27.3308 25.5734 27.3308 24.1488 26.4521 23.2701L15.6188 12.4368ZM62.5632 15.6188C63.4419 14.7401 63.4419 13.3155 62.5632 12.4368C61.6845 11.5581 60.2599 11.5581 59.3812 12.4368L48.5479 23.2701C47.6692 24.1488 47.6692 25.5734 48.5479 26.4521C49.4266 27.3308 50.8512 27.3308 51.7299 26.4521L62.5632 15.6188ZM51.7299 48.5479C50.8512 47.6692 49.4266 47.6692 48.5479 48.5479C47.6692 49.4266 47.6692 50.8512 48.5479 51.7299L59.3812 62.5632C60.2599 63.4419 61.6845 63.4419 62.5632 62.5632C63.4419 61.6845 63.4419 60.2599 62.5632 59.3812L51.7299 48.5479ZM12.4368 59.3812C11.5581 60.2599 11.5581 61.6845 12.4368 62.5632C13.3155 63.4419 14.7401 63.4419 15.6188 62.5632L26.4521 51.7299C27.3308 50.8512 27.3308 49.4266 26.4521 48.5479C25.5734 47.6692 24.1488 47.6692 23.2701 48.5479L12.4368 59.3812ZM31.6389 8.61111C31.6389 10.1656 32.2564 11.6564 33.3556 12.7555C34.4547 13.8547 35.9455 14.4722 37.5 14.4722C39.0545 14.4722 40.5453 13.8547 41.6444 12.7555C42.7436 11.6564 43.3611 10.1656 43.3611 8.61111C43.3611 7.05665 42.7436 5.56585 41.6444 4.46668C40.5453 3.36751 39.0545 2.75 37.5 2.75C35.9455 2.75 34.4547 3.36751 33.3556 4.46668C32.2564 5.56585 31.6389 7.05665 31.6389 8.61111ZM2.75 37.5C2.75 39.0545 3.36751 40.5453 4.46668 41.6444C5.56585 42.7436 7.05665 43.3611 8.61111 43.3611C10.1656 43.3611 11.6564 42.7436 12.7555 41.6444C13.8547 40.5453 14.4722 39.0545 14.4722 37.5C14.4722 35.9455 13.8547 34.4547 12.7555 33.3556C11.6564 32.2564 10.1656 31.6389 8.61111 31.6389C7.05665 31.6389 5.56585 32.2564 4.46668 33.3556C3.36751 34.4547 2.75 35.9455 2.75 37.5ZM60.5278 37.5C60.5278 39.0545 61.1453 40.5453 62.2445 41.6444C63.3436 42.7436 64.8344 43.3611 66.3889 43.3611C67.9434 43.3611 69.4342 42.7436 70.5333 41.6444C71.6325 40.5453 72.25 39.0545 72.25 37.5C72.25 35.9455 71.6325 34.4547 70.5333 33.3556C69.4342 32.2564 67.9434 31.6389 66.3889 31.6389C64.8344 31.6389 63.3436 32.2564 62.2445 33.3556C61.1453 34.4547 60.5278 35.9455 60.5278 37.5ZM31.6389 66.3889C31.6389 67.9434 32.2564 69.4342 33.3556 70.5333C34.4547 71.6325 35.9455 72.25 37.5 72.25C39.0545 72.25 40.5453 71.6325 41.6444 70.5333C42.7436 69.4342 43.3611 67.9434 43.3611 66.3889C43.3611 64.8344 42.7436 63.3436 41.6444 62.2445C40.5453 61.1453 39.0545 60.5278 37.5 60.5278C35.9455 60.5278 34.4547 61.1453 33.3556 62.2445C32.2564 63.3436 31.6389 64.8344 31.6389 66.3889Z" stroke="white" stroke-width="4.5" stroke-linecap="round" stroke-linejoin="round"/>
</svg>
