<svg width="75" height="75" viewBox="0 0 75 75" fill="none" xmlns="http://www.w3.org/2000/svg">
<g clip-path="url(#clip0_1459_15247)">
<path d="M-3 50.8947C3.68 48.1316 10.32 45.3684 17 44.1526V14.0526C17 11.1213 18.2643 8.31001 20.5147 6.23724C22.7652 4.16447 25.8174 3 29 3C34.24 3 38.68 6.05789 40.32 10.3684H29C27.9391 10.3684 26.9217 10.7566 26.1716 11.4475C25.4214 12.1384 25 13.0755 25 14.0526V17.7368H45V14.0526C45 11.1213 46.2643 8.31001 48.5147 6.23724C50.7652 4.16447 53.8174 3 57 3C62.24 3 66.68 6.05789 68.32 10.3684H57C55.9391 10.3684 54.9217 10.7566 54.1716 11.4475C53.4214 12.1384 53 13.0755 53 14.0526V50.6737C61 49.4947 69 43.5263 77 43.5263V50.8947C68.12 50.8947 59.24 58.2632 50.32 58.2632C41.44 58.2632 32.56 50.8947 23.68 50.8947C14.76 50.8947 5.88 54.5789 -3 58.2632V50.8947ZM45 25.1053H25V32.4737H45V25.1053ZM45 39.8421H25V43.5263C31.68 44.1158 38.32 48.3526 45 50.1211V39.8421ZM-3 65.6316C5.88 61.9474 14.76 58.2632 23.68 58.2632C32.56 58.2632 41.44 65.6316 50.32 65.6316C59.24 65.6316 68.12 58.2632 77 58.2632V65.6316C68.12 65.6316 59.24 73 50.32 73C41.44 73 32.56 65.6316 23.68 65.6316C14.76 65.6316 5.88 69.3158 -3 73V65.6316Z" fill="white"/>
</g>
<defs>
<clipPath id="clip0_1459_15247">
<rect width="75" height="75" fill="white"/>
</clipPath>
</defs>
</svg>
