<svg width="18" height="18" viewBox="0 0 18 18" fill="none" xmlns="http://www.w3.org/2000/svg">
<path d="M6.18452 9.48335L12.5056 15.0451C12.5787 15.1097 12.6673 15.1543 12.7628 15.1744C12.8582 15.1944 12.9573 15.1893 13.0502 15.1595C13.1431 15.1297 13.2267 15.0763 13.2927 15.0045C13.3587 14.9326 13.4049 14.8448 13.4267 14.7498L16.0705 3.20444C16.0926 3.10501 16.0874 3.00143 16.0553 2.90475C16.0232 2.80807 15.9654 2.72193 15.8882 2.65551C15.8109 2.5891 15.7171 2.54491 15.6167 2.52766C15.5163 2.5104 15.4131 2.52074 15.3181 2.55756L2.33843 7.65522C1.81812 7.85913 1.88843 8.6185 2.43687 8.731L6.18452 9.48335Z" stroke="#292F78" stroke-width="1.3" stroke-linecap="round" stroke-linejoin="round"/>
<path d="M6.1875 9.48594L15.757 2.57422" stroke="#292F78" stroke-width="1.3" stroke-linecap="round" stroke-linejoin="round"/>
<path d="M9.34453 12.2617L7.15078 14.4555C7.07252 14.5349 6.97239 14.5894 6.86313 14.6118C6.75387 14.6342 6.64041 14.6237 6.53717 14.5815C6.43392 14.5393 6.34555 14.4673 6.28329 14.3748C6.22103 14.2822 6.18769 14.1733 6.1875 14.0617V9.48438" stroke="#292F78" stroke-width="1.3" stroke-linecap="round" stroke-linejoin="round"/>
</svg>
