<svg width="74" height="74" viewBox="0 0 74 74" fill="none" xmlns="http://www.w3.org/2000/svg">
<path d="M71.9988 36.9902C71.9988 56.3666 56.2901 72.0744 36.9123 72.0744C17.5346 72.0744 1.8259 56.3666 1.8259 36.9902C1.8259 17.6138 17.5346 1.90598 36.9123 1.90598C56.2901 1.90598 71.9988 17.6138 71.9988 36.9902Z" stroke="#292F78" stroke-width="2.73383"/>
<path d="M41.3516 34.5273H48.4709" stroke="#292F78" stroke-width="2.73383" stroke-linecap="round" stroke-linejoin="round"/>
<path d="M41.3516 40.2227H48.4709" stroke="#292F78" stroke-width="2.73383" stroke-linecap="round" stroke-linejoin="round"/>
<path d="M30.6906 40.2229C33.0497 40.2229 34.9622 38.3105 34.9622 35.9513C34.9622 33.5922 33.0497 31.6797 30.6906 31.6797C28.3314 31.6797 26.4189 33.5922 26.4189 35.9513C26.4189 38.3105 28.3314 40.2229 30.6906 40.2229Z" stroke="#292F78" stroke-width="2.73383" stroke-linecap="round" stroke-linejoin="round"/>
<path d="M25.1729 44.4937C25.4865 43.2686 26.199 42.1827 27.198 41.4073C28.197 40.6318 29.4257 40.2109 30.6904 40.2109C31.955 40.2109 33.1837 40.6318 34.1827 41.4073C35.1817 42.1827 35.8942 43.2686 36.2079 44.4937" stroke="#292F78" stroke-width="2.73383" stroke-linecap="round" stroke-linejoin="round"/>
<path d="M52.7422 23.1367H21.417C20.6307 23.1367 19.9932 23.7742 19.9932 24.5606V50.1903C19.9932 50.9767 20.6307 51.6142 21.417 51.6142H52.7422C53.5286 51.6142 54.1661 50.9767 54.1661 50.1903V24.5606C54.1661 23.7742 53.5286 23.1367 52.7422 23.1367Z" stroke="#292F78" stroke-width="2.73383" stroke-linecap="round" stroke-linejoin="round"/>
</svg>
