<svg width="60" height="60" viewBox="0 0 60 60" fill="none" xmlns="http://www.w3.org/2000/svg">
<path d="M16.875 23.4375H7.5C6.46447 23.4375 5.625 24.277 5.625 25.3125V34.6875C5.625 35.723 6.46447 36.5625 7.5 36.5625H16.875C17.9105 36.5625 18.75 35.723 18.75 34.6875V25.3125C18.75 24.277 17.9105 23.4375 16.875 23.4375Z" stroke="#AE4029" stroke-width="2" stroke-linecap="round" stroke-linejoin="round"/>
<path d="M50.625 9.375H39.375C38.3395 9.375 37.5 10.2145 37.5 11.25V22.5C37.5 23.5355 38.3395 24.375 39.375 24.375H50.625C51.6605 24.375 52.5 23.5355 52.5 22.5V11.25C52.5 10.2145 51.6605 9.375 50.625 9.375Z" stroke="#AE4029" stroke-width="2" stroke-linecap="round" stroke-linejoin="round"/>
<path d="M50.625 35.625H39.375C38.3395 35.625 37.5 36.4645 37.5 37.5V48.75C37.5 49.7855 38.3395 50.625 39.375 50.625H50.625C51.6605 50.625 52.5 49.7855 52.5 48.75V37.5C52.5 36.4645 51.6605 35.625 50.625 35.625Z" stroke="#AE4029" stroke-width="2" stroke-linecap="round" stroke-linejoin="round"/>
<path d="M18.75 30H28.125" stroke="#AE4029" stroke-width="2" stroke-linecap="round" stroke-linejoin="round"/>
<path d="M37.5 43.1251H33.75C33.0105 43.1282 32.2776 42.9848 31.5938 42.7032C30.9099 42.4216 30.2886 42.0074 29.7657 41.4844C29.2427 40.9615 28.8285 40.3402 28.5469 39.6563C28.2653 38.9725 28.1219 38.2396 28.125 37.5001V22.5C28.1219 21.7605 28.2653 21.0276 28.5469 20.3438C28.8285 19.6599 29.2427 19.0386 29.7657 18.5157C30.2886 17.9927 30.9099 17.5785 31.5938 17.2969C32.2776 17.0153 33.0105 16.8719 33.75 16.875H37.5" stroke="#AE4029" stroke-width="2" stroke-linecap="round" stroke-linejoin="round"/>
</svg>
