<svg width="33" height="32" viewBox="0 0 33 32" fill="none" xmlns="http://www.w3.org/2000/svg">
<path d="M16.8903 11.0005C16.8903 8.25045 19.2028 5.96295 21.9528 6.00045C22.9159 6.01157 23.8552 6.3006 24.658 6.8328C25.4607 7.365 26.0926 8.11771 26.4778 9.00045H30.8903L26.8528 13.038C26.5923 17.0937 24.7969 20.8979 21.8318 23.6773C18.8667 26.4566 14.9544 28.0025 10.8903 28.0005C6.89032 28.0005 5.89032 26.5005 5.89032 26.5005C5.89032 26.5005 9.89032 25.0005 11.8903 22.0005C11.8903 22.0005 3.89032 18.0005 5.89032 7.00045C5.89032 7.00045 10.8903 12.0005 16.8903 13.0005V11.0005Z" stroke="black" stroke-width="2" stroke-linecap="round" stroke-linejoin="round"/>
</svg>
