<svg width="33" height="34" viewBox="0 0 33 34" fill="none" xmlns="http://www.w3.org/2000/svg">
<rect y="0.439453" width="33" height="33" rx="16.5" fill="#33CCFF"/>
<path d="M24.6902 11.7144C24.1453 11.9491 23.5725 12.1126 22.9859 12.2007C23.2601 12.1536 23.6637 11.6595 23.8243 11.4595C24.0684 11.1579 24.2543 10.8135 24.3728 10.4439C24.3728 10.4164 24.4003 10.3772 24.3728 10.3576C24.359 10.35 24.3435 10.3461 24.3278 10.3461C24.312 10.3461 24.2965 10.35 24.2827 10.3576C23.6457 10.7028 22.9678 10.9664 22.2649 11.1419C22.2404 11.1494 22.2144 11.15 22.1895 11.1438C22.1647 11.1376 22.142 11.1247 22.1239 11.1066C22.0692 11.0414 22.0103 10.9798 21.9476 10.9223C21.6609 10.6652 21.3357 10.4548 20.9837 10.2988C20.5087 10.1037 19.9956 10.0192 19.4831 10.0517C18.9859 10.0831 18.5005 10.2166 18.057 10.4439C17.6203 10.6834 17.2364 11.0089 16.9286 11.4007C16.6048 11.804 16.371 12.272 16.2429 12.7732C16.1374 13.25 16.1254 13.7428 16.2077 14.2242C16.2077 14.3065 16.2077 14.3183 16.1371 14.3065C13.3436 13.8948 11.0516 12.9026 9.17874 10.7733C9.09646 10.6791 9.05336 10.6791 8.98676 10.7733C8.17181 12.0125 8.56753 13.9732 9.58621 14.9418C9.72334 15.0712 9.86439 15.1967 10.0133 15.3144C9.54622 15.2812 9.09056 15.1545 8.67331 14.9418C8.59495 14.8908 8.55185 14.9183 8.54794 15.0124C8.53683 15.1429 8.53683 15.2741 8.54794 15.4046C8.62969 16.0299 8.87591 16.6223 9.26141 17.1211C9.64691 17.6199 10.1579 18.0074 10.742 18.2437C10.8844 18.3048 11.0328 18.3508 11.1848 18.381C10.7524 18.4662 10.3089 18.4794 9.87223 18.4202C9.7782 18.4006 9.74293 18.4516 9.7782 18.5418C10.3541 20.1104 11.604 20.5888 12.5208 20.8555C12.6462 20.8751 12.7716 20.8751 12.9126 20.9064C12.9126 20.9064 12.9126 20.9064 12.8891 20.93C12.6188 21.4241 11.5256 21.7574 11.0241 21.9299C10.1087 22.259 9.13278 22.3848 8.16397 22.2986C8.01117 22.275 7.97591 22.279 7.93673 22.2986C7.89755 22.3182 7.93673 22.3613 7.97982 22.4005C8.17572 22.5299 8.37163 22.6437 8.57536 22.7535C9.18189 23.0846 9.82311 23.3476 10.4874 23.5378C13.9274 24.4868 17.7984 23.7887 20.3804 21.2202C22.4099 19.2045 23.123 16.4242 23.123 13.6399C23.123 13.534 23.2523 13.4713 23.3267 13.4164C23.8402 13.0159 24.2929 12.543 24.6706 12.0125C24.736 11.9334 24.7696 11.8327 24.7646 11.7301V11.7301C24.7646 11.6713 24.7646 11.6831 24.6902 11.7144Z" fill="white"/>
</svg>
