<svg width="18" height="15" viewBox="0 0 18 15" fill="none" xmlns="http://www.w3.org/2000/svg">
<path d="M8.15358 3.95475C8.15358 2.32979 9.61482 0.97811 11.3525 1.00027C11.9611 1.00684 12.5546 1.17763 13.0619 1.4921C13.5691 1.80657 13.9684 2.25135 14.2118 2.77296H17L14.4488 5.15871C14.2841 7.55521 13.1497 9.80314 11.276 11.4455C9.40243 13.0878 6.9303 14.0012 4.36226 14C1.83471 14 1.20283 13.1137 1.20283 13.1137C1.20283 13.1137 3.73038 12.2273 4.99415 10.4546C4.99415 10.4546 -0.0609459 8.09103 1.20283 1.59117C1.20283 1.59117 4.36226 4.54565 8.15358 5.13655V3.95475Z" stroke="#292F78" stroke-width="1.5" stroke-linecap="round" stroke-linejoin="round"/>
</svg>
