<svg width="50" height="50" viewBox="0 0 50 50" fill="none" xmlns="http://www.w3.org/2000/svg">
<path d="M25 35.1562C29.3147 35.1562 32.8125 31.6585 32.8125 27.3438C32.8125 23.029 29.3147 19.5312 25 19.5312C20.6853 19.5312 17.1875 23.029 17.1875 27.3438C17.1875 31.6585 20.6853 35.1562 25 35.1562Z" stroke="#292F78" stroke-width="2.5" stroke-linecap="round" stroke-linejoin="round"/>
<path d="M38.2812 22.6563C40.1011 22.6532 41.8964 23.0755 43.5241 23.8893C45.1518 24.7032 46.5668 25.8861 47.6562 27.3438" stroke="#292F78" stroke-width="2.5" stroke-linecap="round" stroke-linejoin="round"/>
<path d="M2.34375 27.3438C3.4332 25.8861 4.8482 24.7032 6.4759 23.8893C8.10359 23.0755 9.89894 22.6532 11.7188 22.6563" stroke="#292F78" stroke-width="2.5" stroke-linecap="round" stroke-linejoin="round"/>
<path d="M13.751 42.1884C14.7799 40.0811 16.38 38.3052 18.369 37.063C20.358 35.8207 22.6559 35.1621 25.001 35.1621C27.346 35.1621 29.6439 35.8207 31.6329 37.063C33.6219 38.3052 35.222 40.0811 36.251 42.1884" stroke="#292F78" stroke-width="2.5" stroke-linecap="round" stroke-linejoin="round"/>
<path d="M11.7192 22.6562C10.533 22.6575 9.3709 22.321 8.36874 21.6863C7.36659 21.0516 6.56576 20.1448 6.05983 19.0718C5.5539 17.9989 5.36377 16.8041 5.51165 15.6271C5.65952 14.4501 6.1393 13.3395 6.89492 12.4251C7.65055 11.5106 8.65081 10.8301 9.77883 10.463C10.9068 10.0959 12.116 10.0575 13.2651 10.3521C14.4142 10.6467 15.4557 11.2622 16.268 12.1268C17.0802 12.9913 17.6296 14.0692 17.852 15.2344" stroke="#292F78" stroke-width="2.5" stroke-linecap="round" stroke-linejoin="round"/>
<path d="M32.1475 15.2344C32.3699 14.0692 32.9193 12.9913 33.7316 12.1268C34.5438 11.2622 35.5853 10.6467 36.7344 10.3521C37.8835 10.0575 39.0927 10.0959 40.2207 10.463C41.3487 10.8301 42.349 11.5106 43.1046 12.4251C43.8602 13.3395 44.34 14.4501 44.4879 15.6271C44.6357 16.8041 44.4456 17.9989 43.9397 19.0718C43.4337 20.1448 42.6329 21.0516 41.6308 21.6863C40.6286 22.321 39.4665 22.6575 38.2803 22.6562" stroke="#292F78" stroke-width="2.5" stroke-linecap="round" stroke-linejoin="round"/>
</svg>
