<svg width="40" height="41" viewBox="0 0 40 41" fill="none" xmlns="http://www.w3.org/2000/svg">
<path d="M13.75 25.4732C18.2373 25.4732 21.875 21.8297 21.875 17.3353C21.875 12.8408 18.2373 9.19727 13.75 9.19727C9.26269 9.19727 5.625 12.8408 5.625 17.3353C5.625 21.8297 9.26269 25.4732 13.75 25.4732Z" stroke="white" stroke-width="1.34226" stroke-miterlimit="10"/>
<path d="M24.2832 9.49462C25.0015 9.2995 25.7421 9.19953 26.4863 9.19727C28.6412 9.19727 30.7078 10.0547 32.2316 11.5808C33.7553 13.107 34.6113 15.1769 34.6113 17.3353C34.6113 19.4936 33.7553 21.5635 32.2316 23.0897C30.7078 24.6159 28.6412 25.4732 26.4863 25.4732" stroke="white" stroke-width="1.34226" stroke-linecap="round" stroke-linejoin="round"/>
<path d="M2.50195 31.3263C3.77062 29.5181 5.45514 28.0422 7.41321 27.0234C9.37129 26.0045 11.5454 25.4727 13.752 25.4727C15.9585 25.4727 18.1326 26.0045 20.0907 27.0234C22.0488 28.0422 23.7333 29.5181 25.002 31.3263" stroke="white" stroke-width="1.34226" stroke-linecap="round" stroke-linejoin="round"/>
<path d="M26.4863 25.4727C28.693 25.4713 30.8676 26.0025 32.8259 27.0214C34.7842 28.0402 36.4685 29.5167 37.7363 31.3257" stroke="white" stroke-width="1.34226" stroke-linecap="round" stroke-linejoin="round"/>
</svg>
