<svg width="23" height="22" viewBox="0 0 23 22" fill="none" xmlns="http://www.w3.org/2000/svg">
<path d="M7.125 8.49999C7.125 7.83695 7.38839 7.20107 7.85723 6.73223C8.32607 6.26339 8.96195 6 9.62499 6L10.875 8.49999L9.91249 9.94295C10.2943 10.8552 11.0197 11.5807 11.932 11.9625L13.375 11L15.875 12.25C15.875 12.913 15.6116 13.5489 15.1427 14.0177C14.6739 14.4866 14.038 14.75 13.375 14.75C11.7174 14.75 10.1277 14.0915 8.95557 12.9194C7.78348 11.7473 7.125 10.1576 7.125 8.49999Z" stroke="white" stroke-width="1.2" stroke-linecap="round" stroke-linejoin="round"/>
<path d="M6.49174 19.6549C8.59229 20.8706 11.0633 21.2809 13.444 20.8093C15.8247 20.3377 17.9527 19.0164 19.4311 17.0918C20.9096 15.1671 21.6377 12.7704 21.4796 10.3486C21.3215 7.92675 20.288 5.64507 18.5719 3.92893C16.8558 2.2128 14.5741 1.17934 12.1523 1.02125C9.73043 0.863158 7.33376 1.59122 5.40908 3.06968C3.48441 4.54815 2.1631 6.67612 1.6915 9.05684C1.21991 11.4376 1.63021 13.9085 2.84592 16.0091L1.5428 19.8997C1.49383 20.0465 1.48673 20.2041 1.52228 20.3547C1.55783 20.5054 1.63463 20.6431 1.74408 20.7526C1.85352 20.862 1.99129 20.9388 2.14193 20.9744C2.29257 21.0099 2.45013 21.0028 2.59696 20.9539L6.49174 19.6549Z" stroke="white" stroke-width="1.5" stroke-linecap="round" stroke-linejoin="round"/>
</svg>
