<svg width="140" height="140" viewBox="0 0 140 140" fill="none" xmlns="http://www.w3.org/2000/svg">
<circle cx="70" cy="70" r="69.1126" stroke="white" stroke-width="1.77489"/>
<path d="M45.8145 53.1589V72.8976C45.8145 87.1196 57.3597 98.9055 71.7731 99.013C75.2212 99.0366 78.6399 98.3869 81.8323 97.1013C85.0248 95.8157 87.9279 93.9195 90.3745 91.5221C92.8211 89.1246 94.7629 86.2732 96.0879 83.1321C97.4129 79.9911 98.095 76.6224 98.0949 73.2201V53.1589C98.0949 52.3988 97.7889 51.6698 97.2442 51.1324C96.6995 50.5949 95.9607 50.293 95.1904 50.293H48.7189C47.9486 50.293 47.2098 50.5949 46.6652 51.1324C46.1205 51.6698 45.8145 52.3988 45.8145 53.1589Z" stroke="white" stroke-width="2" stroke-linecap="round" stroke-linejoin="round"/>
<path d="M60.3369 113.344H83.5727" stroke="white" stroke-width="2" stroke-linecap="round" stroke-linejoin="round"/>
<path d="M71.9561 99.0156V113.345" stroke="white" stroke-width="2" stroke-linecap="round" stroke-linejoin="round"/>
<path d="M97.4404 78.9518H100.998C104.08 78.9518 107.035 77.7441 109.213 75.5942C111.392 73.4444 112.616 70.5286 112.616 67.4883V61.7565C112.616 60.9964 112.31 60.2675 111.766 59.73C111.221 59.1926 110.482 58.8906 109.712 58.8906H98.0939" stroke="white" stroke-width="2" stroke-linecap="round" stroke-linejoin="round"/>
<path d="M46.5406 78.9518H42.8737C39.7925 78.9518 36.8374 77.7441 34.6587 75.5942C32.4799 73.4444 31.2559 70.5286 31.2559 67.4883V61.7565C31.2559 60.9964 31.5619 60.2675 32.1066 59.73C32.6513 59.1926 33.39 58.8906 34.1603 58.8906H45.7782" stroke="white" stroke-width="2" stroke-linecap="round" stroke-linejoin="round"/>
<path d="M86.7766 49.5452L83.169 59.2047C83.0622 59.4885 82.8699 59.7334 82.618 59.9062C82.3661 60.0791 82.0666 60.1718 81.7597 60.1718C81.4529 60.1718 81.1534 60.0791 80.9015 59.9062C80.6495 59.7334 80.4573 59.4885 80.3505 59.2047L76.7428 49.5452C76.6667 49.3413 76.5466 49.1562 76.3909 49.0025C76.2352 48.8489 76.0476 48.7304 75.8409 48.6553L66.0514 45.0955C65.7637 44.9902 65.5156 44.8005 65.3404 44.5519C65.1652 44.3033 65.0713 44.0078 65.0713 43.705C65.0713 43.4022 65.1652 43.1067 65.3404 42.8582C65.5156 42.6096 65.7637 42.4199 66.0514 42.3145L75.8409 38.7548C76.0476 38.6797 76.2352 38.5612 76.3909 38.4075C76.5466 38.2539 76.6667 38.0687 76.7428 37.8648L80.3505 28.2054C80.4573 27.9215 80.6495 27.6767 80.9015 27.5038C81.1534 27.3309 81.4529 27.2383 81.7597 27.2383C82.0666 27.2383 82.3661 27.3309 82.618 27.5038C82.8699 27.6767 83.0622 27.9215 83.169 28.2054L86.7766 37.8648C86.8528 38.0687 86.9728 38.2539 87.1285 38.4075C87.2843 38.5612 87.4719 38.6797 87.6785 38.7548L97.4681 42.3145C97.7557 42.4199 98.0039 42.6096 98.1791 42.8582C98.3543 43.1067 98.4482 43.4022 98.4482 43.705C98.4482 44.0078 98.3543 44.3033 98.1791 44.5519C98.0039 44.8005 97.7557 44.9902 97.4681 45.0955L87.6785 48.6553C87.4719 48.7304 87.2843 48.8489 87.1285 49.0025C86.9728 49.1562 86.8528 49.3413 86.7766 49.5452Z" fill="white" stroke="white" stroke-width="2" stroke-linecap="round" stroke-linejoin="round"/>
<path d="M93.7832 19.9766V28.8759" stroke="white" stroke-width="2" stroke-linecap="round" stroke-linejoin="round"/>
<path d="M98.2936 24.4219H89.2744" stroke="white" stroke-width="2" stroke-linecap="round" stroke-linejoin="round"/>
<path d="M102.803 30.3594V36.2923" stroke="white" stroke-width="2" stroke-linecap="round" stroke-linejoin="round"/>
<path d="M105.811 33.3203H99.7979" stroke="white" stroke-width="2" stroke-linecap="round" stroke-linejoin="round"/>
</svg>
