<svg width="33" height="34" viewBox="0 0 33 34" fill="none" xmlns="http://www.w3.org/2000/svg">
<rect y="0.439453" width="33" height="33" rx="16.5" fill="#FF0000"/>
<path d="M25.6783 12.4008C25.4629 11.5908 24.8255 10.9518 24.0146 10.7328C22.5483 10.3398 16.6653 10.3398 16.6653 10.3398C16.6653 10.3398 10.7853 10.3398 9.31607 10.7328C8.50813 10.9488 7.87076 11.5878 7.65231 12.4008C7.26031 13.8708 7.26031 16.9398 7.26031 16.9398C7.26031 16.9398 7.26031 20.0088 7.65231 21.4788C7.86776 22.2888 8.50514 22.9278 9.31607 23.1468C10.7853 23.5398 16.6653 23.5398 16.6653 23.5398C16.6653 23.5398 22.5483 23.5398 24.0146 23.1468C24.8225 22.9308 25.4599 22.2918 25.6783 21.4788C26.0703 20.0088 26.0703 16.9398 26.0703 16.9398C26.0703 16.9398 26.0703 13.8708 25.6783 12.4008Z" fill="white"/>
<path d="M14.7861 19.7688L19.6726 16.9398L14.7861 14.1108V19.7688Z" fill="#FF0000"/>
</svg>
